<svg  xmlns="http://www.w3.org/2000/svg">
    <symbol id="ab-02" width="132" height="132" viewBox="0 0 132 132" fill="none">
<path d="M101.089 58.4232C101.089 54.2739 97.7094 50.8988 93.5555 50.8988H79.7113C83.0748 47.1222 85.2731 42.8219 85.6978 38.964C85.9571 36.6076 85.2283 34.2687 83.6976 32.5467C82.2986 30.9726 80.3855 30.0954 78.3108 30.0762C78.2867 30.0759 78.2626 30.0759 78.2387 30.0759C76.2319 30.0759 74.3483 30.848 72.9268 32.2549C71.505 33.662 70.7182 35.5366 70.709 37.5371C70.636 37.9751 69.8646 39.4852 67.9771 41.2781C66.4318 42.7464 63.7625 44.7649 59.8213 46.043C58.276 46.5442 56.8637 47.467 55.6239 48.7859C54.9732 49.4776 53.9988 50.4329 52.7926 51.3918C52.2006 51.0785 51.5274 50.8993 50.8121 50.8993H37.6636C35.3223 50.8993 33.4177 52.8018 33.4177 55.1404V90.1638C33.4177 92.5025 35.3223 94.405 37.6636 94.405H50.8121C52.4082 94.405 53.8 93.5198 54.5252 92.2161H88.077C91.6266 92.2161 94.5143 89.3316 94.5143 85.786C94.5143 84.5938 94.188 83.4767 93.6196 82.5183C95.4691 81.3874 96.7056 79.3502 96.7056 77.03C96.7056 75.8379 96.3794 74.7208 95.811 73.7623C97.6605 72.6314 98.897 70.5943 98.897 68.274C98.897 66.9322 98.4834 65.685 97.7768 64.6529C99.7739 63.2979 101.089 61.011 101.089 58.4232ZM93.5555 61.8434H92.4597C91.3252 61.8434 90.4052 62.7622 90.4052 63.8957C90.4052 65.0289 91.325 65.9479 92.4597 65.9479C93.7436 65.9479 94.7882 66.9913 94.7882 68.2738C94.7882 69.5563 93.7436 70.5996 92.4597 70.5996H90.2684C89.1338 70.5996 88.2138 71.5184 88.2138 72.6519C88.2138 73.7851 89.1336 74.7041 90.2684 74.7041C91.5523 74.7041 92.5968 75.7475 92.5968 77.03C92.5968 78.3125 91.5523 79.3559 90.2684 79.3559H88.077C86.9425 79.3559 86.0225 80.2746 86.0225 81.4081C86.0225 82.5414 86.9422 83.4603 88.077 83.4603C89.3609 83.4603 90.4055 84.5037 90.4055 85.7862C90.4055 87.0687 89.3609 88.1121 88.077 88.1121H55.058V68.2745C55.058 67.1413 54.1383 66.2223 53.0035 66.2223C51.8687 66.2223 50.949 67.141 50.949 68.2745V90.1641C50.949 90.2396 50.8877 90.3008 50.8121 90.3008H37.6636C37.588 90.3008 37.5268 90.2396 37.5268 90.1641V55.1397C37.5268 55.0642 37.588 55.003 37.6636 55.003H50.8121C50.8877 55.003 50.949 55.0642 50.949 55.1397V59.5178C50.949 60.651 51.8687 61.57 53.0035 61.57C54.1383 61.57 55.058 60.6513 55.058 59.5178V55.1397C55.058 55.0401 55.0498 54.9426 55.0429 54.8448C56.5833 53.6537 57.8152 52.4495 58.6189 51.5951C59.3792 50.7859 60.2106 50.2314 61.0899 49.9465C65.9257 48.3783 69.1801 45.8533 71.0583 44.0112C73.4124 41.7025 74.8175 39.2957 74.8175 37.5727C74.8175 36.6624 75.173 35.8092 75.8185 35.1703C76.472 34.5234 77.3374 34.1817 78.2726 34.1804C79.4242 34.1911 80.1869 34.7797 80.6244 35.2717C81.3742 36.1151 81.7432 37.328 81.6128 38.5155C81.1641 42.5931 77.8994 47.6334 73.2958 51.356C72.6195 51.903 72.3614 52.8164 72.6518 53.6358C72.9421 54.4552 73.7181 55.003 74.5884 55.003H93.555C95.4432 55.003 96.9791 56.5371 96.9791 58.4232C96.9791 60.3093 95.4435 61.8434 93.5555 61.8434Z" fill="#D3122B"/>
<path d="M44.238 81.522C43.1035 81.522 42.1727 82.4518 42.1727 83.585C42.1727 84.7182 43.1035 85.648 44.238 85.648C45.3725 85.648 46.3033 84.7182 46.3033 83.585C46.3035 82.452 45.3728 81.522 44.238 81.522Z" fill="#D3122B"/>
<path d="M128.316 65.9999L131.866 56.6045C132.125 55.921 132.003 55.1519 131.546 54.5814L125.266 46.7429L125.739 36.7101C125.774 35.9805 125.42 35.2862 124.81 34.8853L116.415 29.3709L113.765 19.6829C113.572 18.978 113.021 18.4273 112.317 18.2347L102.629 15.5849L97.1143 7.19029C96.7132 6.57954 96.0191 6.22737 95.2895 6.26062L85.2568 6.73397L77.4183 0.453911C76.848 -0.00293236 76.0789 -0.124878 75.3952 0.13345L65.9997 3.68404L56.6048 0.133708C55.9208 -0.124878 55.152 -0.00293239 54.5818 0.454169L46.7432 6.73422L36.7105 6.26088C35.9773 6.22633 35.2866 6.58005 34.8857 7.19055L29.3716 15.5854L19.6835 18.2352C18.9787 18.4281 18.428 18.9788 18.2354 19.6834L15.5856 29.3715L7.19072 34.8855C6.57996 35.2867 6.2265 35.9807 6.26105 36.7103L6.73439 46.7431L0.454344 54.5816C-0.00249935 55.1519 -0.124444 55.921 0.133883 56.6047L3.68422 65.9999L0.133626 75.3951C-0.12496 76.0786 -0.00301497 76.8476 0.454086 77.4182L6.73413 85.2567L6.26079 95.2895C6.22624 96.0191 6.57996 96.7134 7.19046 97.1143L15.5853 102.629L18.2351 112.317C18.428 113.022 18.9787 113.572 19.6833 113.765L29.3713 116.415L34.8854 124.81C35.2866 125.42 35.9819 125.771 36.7102 125.739L46.743 125.266L54.5815 131.546C55.1518 132.003 55.9211 132.125 56.6046 131.866L66 128.316L75.3955 131.866C75.6326 131.956 75.8799 132 76.1258 132C76.5889 132 77.046 131.844 77.4183 131.546L85.2568 125.266L95.2895 125.739C96.0215 125.772 96.7132 125.42 97.1143 124.81L102.629 116.415L112.317 113.765C113.022 113.572 113.572 113.021 113.765 112.317L116.415 102.629L124.81 97.1143C125.42 96.7131 125.774 96.0191 125.739 95.2895L125.266 85.2567L131.546 77.4182C132.003 76.8479 132.125 76.0788 131.866 75.3951L128.316 65.9999ZM124.173 66.7306L127.583 75.7537L121.552 83.2816C121.237 83.6743 121.076 84.1685 121.1 84.6712L121.555 94.3064L113.493 99.6022C113.072 99.8783 112.766 100.299 112.634 100.784L110.089 110.089L100.785 112.634C100.299 112.766 99.8788 113.072 99.6022 113.493L94.3065 121.555L84.6713 121.1C84.1683 121.077 83.6743 121.237 83.2817 121.552L75.7538 127.583L66.7306 124.173C66.4953 124.084 66.2475 124.04 66 124.04C65.7525 124.04 65.5047 124.084 65.2694 124.173L56.2462 127.583L48.7183 121.552C48.3257 121.237 47.8307 121.077 47.3287 121.1L37.6935 121.555L32.3978 113.493C32.1217 113.072 31.7012 112.766 31.2155 112.634L21.9113 110.089L19.3664 100.784C19.2336 100.299 18.9281 99.8788 18.5074 99.6022L10.4453 94.3064L10.9001 84.6712C10.9238 84.1682 10.7632 83.6743 10.4484 83.2816L4.41717 75.7537L7.82726 66.7306C8.00515 66.2598 8.00515 65.74 7.82726 65.2693L4.41717 56.2461L10.4484 48.7182C10.7632 48.3256 10.9238 47.8313 10.9001 47.3286L10.4453 37.6934L18.5074 32.3977C18.9279 32.1215 19.2336 31.701 19.3664 31.2153L21.9113 21.9111L31.2155 19.3663C31.7009 19.2335 32.1212 18.928 32.3978 18.5072L37.6935 10.4452L47.3287 10.9C47.8309 10.9234 48.3257 10.7631 48.7183 10.4483L56.2462 4.41701L65.2694 7.82709C65.7404 8.00498 66.2599 8.00498 66.7306 7.82709L75.7538 4.41701L83.2817 10.4483C83.6743 10.7633 84.1688 10.9237 84.6713 10.9L94.3065 10.4452L99.6022 18.5072C99.8783 18.9277 100.299 19.2335 100.785 19.3663L110.089 21.9111L112.634 31.2153C112.766 31.7008 113.072 32.121 113.493 32.3977L121.555 37.6934L121.1 47.3286C121.076 47.8316 121.237 48.3256 121.552 48.7182L127.583 56.2461L124.173 65.2693C123.995 65.7403 123.995 66.2598 124.173 66.7306Z" fill="#0A4A83"/>
<path d="M104.835 30.312C104.321 29.752 103.788 29.1951 103.249 28.6568C102.71 28.1185 102.154 27.5848 101.594 27.0705C100.753 26.2986 99.4457 26.3543 98.6736 27.1953C97.9017 28.036 97.9574 29.3436 98.7984 30.1155C99.3148 30.5899 99.8288 31.0823 100.326 31.5794C100.823 32.0762 101.315 32.5905 101.79 33.1072C102.198 33.5511 102.754 33.7762 103.313 33.7762C103.813 33.7762 104.313 33.5962 104.71 33.2319C105.551 32.4603 105.607 31.1527 104.835 30.312Z" fill="#0A4A83"/>
<path d="M94.2542 21.4306C84.2871 15.0806 72.287 12.2586 60.4655 13.4825C48.4708 14.7251 37.1606 20.1139 28.6177 28.6565C19.2161 38.0582 13.7422 50.5477 13.2044 63.8242C12.67 77.0227 17.0415 89.837 25.5139 99.9061C25.9226 100.392 26.5073 100.642 27.0967 100.642C27.5664 100.642 28.0387 100.483 28.4262 100.157C29.2994 99.422 29.4118 98.1182 28.677 97.245C20.8702 87.9666 16.8422 76.1572 17.3346 63.9918C17.8301 51.7555 22.875 40.2447 31.5403 31.5796C39.4139 23.7058 49.8378 18.739 60.8912 17.5941C71.7902 16.4648 82.8493 19.0659 92.0329 24.9167C92.9958 25.53 94.273 25.247 94.8863 24.2843C95.4999 23.3214 95.2166 22.0439 94.2542 21.4306Z" fill="#0A4A83"/>
<path d="M110.475 37.6516C109.862 36.6887 108.584 36.4056 107.622 37.0189C106.659 37.6323 106.376 38.91 106.989 39.8724C112.84 49.0562 115.441 60.1159 114.312 71.0141C113.167 82.0676 108.2 92.4912 100.327 100.365C91.6613 109.03 80.1505 114.076 67.9145 114.571C55.7512 115.065 43.9395 111.036 34.6614 103.229C33.7882 102.494 32.4844 102.606 31.7494 103.48C31.0144 104.353 31.1268 105.657 32.0002 106.392C41.5189 114.401 53.4892 118.746 65.9196 118.745C66.6386 118.745 67.3605 118.731 68.0824 118.701C81.3589 118.164 93.8481 112.69 103.25 103.288C111.793 94.7455 117.182 83.435 118.424 71.4403C119.648 59.618 116.825 47.6184 110.475 37.6516Z" fill="#0A4A83"/>
    </symbol>
</svg>
