<svg  xmlns="http://www.w3.org/2000/svg">
    <symbol width="15" height="18" viewBox="0 0 15 18" fill="none">
<path fill-rule="evenodd" clip-rule="evenodd" d="M7.5 1.50001C5.9087 1.50001 4.38258 2.13215 3.25737 3.25738C2.13215 4.38261 1.5 5.90875 1.5 7.50006C1.5 9.82363 3.0118 12.0783 4.66946 13.8281C5.48296 14.6868 6.299 15.3897 6.91251 15.8783C7.14083 16.0601 7.34027 16.2115 7.5 16.3296C7.65973 16.2115 7.85917 16.0601 8.08749 15.8783C8.701 15.3897 9.51704 14.6868 10.3305 13.8281C11.9882 12.0783 13.5 9.82363 13.5 7.50006C13.5 5.90875 12.8679 4.38261 11.7426 3.25738C10.6174 2.13215 9.0913 1.50001 7.5 1.50001ZM7.5 17.2501C7.08397 17.8742 7.08357 17.8739 7.08357 17.8739L7.08143 17.8725L7.07643 17.8691L7.05924 17.8575C7.04464 17.8476 7.02381 17.8333 6.99717 17.8149C6.9439 17.778 6.86736 17.7242 6.77085 17.6545C6.57792 17.5152 6.30477 17.3118 5.97812 17.0517C5.326 16.5324 4.45454 15.7823 3.58054 14.8597C1.8632 13.0469 0 10.4265 0 7.50006C4.47035e-08 5.51092 0.790182 3.60327 2.1967 2.19673C3.60323 0.7902 5.51088 0 7.5 0C9.48912 0 11.3968 0.7902 12.8033 2.19673C14.2098 3.60327 15 5.51092 15 7.50006C15 10.4265 13.1368 13.0469 11.4195 14.8597C10.5455 15.7823 9.674 16.5324 9.02188 17.0517C8.69523 17.3118 8.42209 17.5152 8.22916 17.6545C8.13266 17.7242 8.0561 17.778 8.00283 17.8149C7.97619 17.8333 7.95537 17.8476 7.94077 17.8575L7.92358 17.8691L7.91858 17.8725L7.91699 17.8735C7.91699 17.8735 7.91603 17.8742 7.5 17.2501ZM7.5 17.2501L7.91603 17.8742C7.6641 18.0421 7.3355 18.0418 7.08357 17.8739L7.5 17.2501Z" fill="#424242"/>
<path fill-rule="evenodd" clip-rule="evenodd" d="M7.5 6.00005C6.67157 6.00005 6 6.67163 6 7.50006C6 8.3285 6.67157 9.00008 7.5 9.00008C8.32843 9.00008 9 8.3285 9 7.50006C9 6.67163 8.32843 6.00005 7.5 6.00005ZM4.5 7.50006C4.5 5.84319 5.84315 4.50004 7.5 4.50004C9.15685 4.50004 10.5 5.84319 10.5 7.50006C10.5 9.15693 9.15685 10.5001 7.5 10.5001C5.84315 10.5001 4.5 9.15693 4.5 7.50006Z" fill="#424242"/>
    </symbol>
</svg>
