<svg width="15" height="15" viewBox="0 0 15 15" fill="none" xmlns="http://www.w3.org/2000/svg">
<path d="M12.4259 15C12.3601 15 12.2944 15 12.2286 15C10.1248 14.7391 8.02093 14.0217 6.2458 12.913C4.60217 11.8696 3.15577 10.4348 2.10385 8.80435C0.920432 7.04348 0.197236 4.9565 0 2.86954C0 2.3478 0.131489 1.82606 0.460215 1.43475C0.788942 1.04345 1.24916 0.782593 1.77512 0.717375C1.84087 0.717375 1.90661 0.717375 1.97236 0.717375H3.94472C4.9309 0.717375 5.78559 1.43475 5.91708 2.41301C5.98282 2.99997 6.11431 3.58695 6.31154 4.10869C6.57452 4.82608 6.37729 5.6087 5.85133 6.19565L5.39111 6.65214C6.18006 7.82606 7.16624 8.86956 8.4154 9.65217L8.87562 9.19564C9.40158 8.6739 10.2563 8.47824 10.9795 8.73911C11.5054 8.93476 12.0971 9.06522 12.6888 9.13043C13.675 9.26087 14.3982 10.1087 14.3982 11.087V13.0435C14.3982 13.5652 14.201 14.0869 13.8065 14.413C13.412 14.7391 12.9518 15 12.4259 15ZM3.94472 2.02172H1.97236C1.77512 2.02172 1.57789 2.15217 1.44639 2.28261C1.38065 2.41304 1.31491 2.54345 1.31491 2.7391C1.51214 4.6304 2.16959 6.4565 3.22152 8.08693C4.2077 9.58693 5.45685 10.8913 6.969 11.8043C8.61263 12.8478 10.4535 13.5 12.3601 13.6957C12.6231 13.6957 12.7546 13.6304 12.8861 13.5C13.0176 13.3695 13.0833 13.2391 13.0833 13.0435V11.087C13.0833 10.7609 12.8203 10.5 12.4916 10.4348C11.8342 10.3696 11.1767 10.1739 10.5192 9.91301C10.2563 9.84779 9.99328 9.8478 9.79605 10.0435L8.94136 10.8913C8.74412 11.0869 8.41539 11.1522 8.15241 11.0217C6.37729 10.0435 4.9309 8.6087 3.94472 6.84783C3.87897 6.58696 3.94472 6.26086 4.14196 6.06521L4.99664 5.21739C5.12813 5.08696 5.19388 4.76087 5.12814 4.56522C4.86515 3.91304 4.73366 3.26087 4.60217 2.6087C4.60217 2.28261 4.27345 2.02172 3.94472 2.02172ZM11.7684 6.58694C11.4397 6.58694 11.1767 6.3913 11.111 6.06521C10.9137 5.02173 10.059 4.23911 9.0071 3.97825C8.67838 3.91303 8.41539 3.58693 8.48114 3.19563C8.54689 2.86954 8.87561 2.60868 9.27008 2.6739C10.848 2.99998 12.0971 4.17391 12.3601 5.73912C12.4259 6.06521 12.2286 6.45652 11.8342 6.52174C11.8342 6.52174 11.8342 6.58694 11.7684 6.58694ZM14.3982 6.52174C14.0695 6.52174 13.8065 6.26085 13.7408 5.93477C13.4778 3.52172 11.5712 1.63043 9.07285 1.30435C8.74413 1.23913 8.48114 0.91302 8.48114 0.586933C8.48114 0.260846 8.87562 0 9.20434 0C12.2944 0.326087 14.6612 2.67391 14.9899 5.73912C15.0557 6.06521 14.7927 6.39128 14.3982 6.4565C14.464 6.52172 14.3982 6.52174 14.3982 6.52174Z" fill="#424242"/>
</svg>
