<svg fill="none" xmlns="http://www.w3.org/2000/svg">
    <symbol id="con-04"  width="15" height="12" viewBox="0 0 15 12" >
<path fill-rule="evenodd" clip-rule="evenodd" d="M2.04549 1.33333C1.67206 1.33333 1.36368 1.63486 1.36368 2V10C1.36368 10.3651 1.67206 10.6667 2.04549 10.6667H12.9545C13.3279 10.6667 13.6363 10.3651 13.6363 10V2C13.6363 1.63486 13.3279 1.33333 12.9545 1.33333H2.04549ZM5.57834e-05 2C5.57834e-05 0.898477 0.918945 0 2.04549 0H12.9545C14.0811 0 14.9999 0.898477 14.9999 2V10C14.9999 11.1015 14.0811 12 12.9545 12H2.04549C0.918945 12 5.57834e-05 11.1015 5.57834e-05 10V2Z" fill="#424242"/>
<path fill-rule="evenodd" clip-rule="evenodd" d="M0.123308 1.61768C0.339248 1.31604 0.764383 1.24271 1.07287 1.45386L7.5 5.85291L13.9271 1.45386C14.2356 1.24271 14.6607 1.31604 14.8767 1.61768C15.0926 1.91931 15.0176 2.335 14.7091 2.54614L7.891 7.21281C7.65624 7.37349 7.34377 7.37349 7.10901 7.21281L0.290879 2.54614C-0.0176067 2.335 -0.0926323 1.91931 0.123308 1.61768Z" fill="#424242"/>
    </symbol>
</svg>
