<svg  xmlns="http://www.w3.org/2000/svg">
    <symbol id="logo-n" width="177" height="38" viewBox="0 0 177 38" fill="none">
<rect width="177" height="38" fill="#E5E5E5"/>
<g clip-path="url(#clip0)">
<rect x="-262" y="-11" width="1920" height="3391" fill="#FAFAFA"/>
</g>
<path d="M-262 -11H1658V142H-262V-11Z" fill="white"/>
<mask id="path-4-outside-1" maskUnits="userSpaceOnUse" x="10.4109" y="10.4362" width="158" height="18" fill="black">
<rect fill="white" x="10.4109" y="10.4362" width="158" height="18"/>
<path d="M19.7161 27.6904C17.2075 27.6904 15.1961 26.9407 13.682 25.4415C12.1679 23.9423 11.4109 21.9828 11.4109 19.5633C11.4109 17.1437 12.1679 15.1843 13.682 13.685C15.1961 12.1858 17.2075 11.4362 19.7161 11.4362C21.7052 11.4362 23.5013 12.0299 25.1045 13.2174L24.3475 14.2639C22.8927 13.1952 21.3415 12.6608 19.6939 12.6608C17.6157 12.6608 15.9309 13.3065 14.6395 14.5979C13.3629 15.8745 12.7246 17.5296 12.7246 19.5633C12.7246 21.5969 13.3629 23.2594 14.6395 24.5509C15.9309 25.8274 17.6157 26.4657 19.6939 26.4657C21.3415 26.4657 22.8927 25.9314 24.3475 24.8626L25.1045 25.9091C23.5013 27.0966 21.7052 27.6904 19.7161 27.6904Z"/>
<path d="M58.9722 11.7701H60.1968V27.3564H58.9722V19.6078H49.5537V27.3564H48.329V11.7701H49.5537V18.4277H58.9722V11.7701Z"/>
<path d="M95.1863 11.7701V27.3564H93.8504L84.5877 13.8409H84.5432V27.3564H83.3185V11.7701H84.6545L93.9172 25.2856H93.9617V11.7701H95.1863Z"/>
<path d="M124.325 11.4362C125.542 11.4362 126.812 11.7479 128.133 12.3713L127.554 13.5514C126.411 12.9577 125.342 12.6608 124.347 12.6608C123.442 12.6608 122.744 12.8612 122.254 13.262C121.765 13.6479 121.52 14.1749 121.52 14.8429C121.52 15.4218 121.69 15.9116 122.032 16.3124C122.373 16.7132 122.885 17.1585 123.568 17.6484L125.951 19.3406C126.886 20.0086 127.583 20.6691 128.044 21.3223C128.504 21.9754 128.734 22.7547 128.734 23.6602C128.734 24.9665 128.303 25.9685 127.442 26.6661C126.581 27.349 125.438 27.6904 124.013 27.6904C122.217 27.6904 120.614 27.2228 119.204 26.2876L119.827 25.152C121.193 26.0278 122.588 26.4657 124.013 26.4657C125.142 26.4657 125.995 26.206 126.574 25.6864C127.153 25.1669 127.442 24.5137 127.442 23.727C127.442 23.1333 127.264 22.5914 126.908 22.1016C126.552 21.5969 125.958 21.0477 125.127 20.4539L122.655 18.6504C121.868 18.0863 121.267 17.5222 120.852 16.9581C120.436 16.3941 120.228 15.6964 120.228 14.8651C120.228 13.8112 120.584 12.9799 121.297 12.3713C122.009 11.7479 123.019 11.4362 124.325 11.4362Z"/>
<path d="M153.27 13.7296C154.814 12.2006 156.751 11.4362 159.082 11.4362C161.412 11.4362 163.349 12.2006 164.893 13.7296C166.437 15.2436 167.209 17.1882 167.209 19.5633C167.209 21.9383 166.437 23.8903 164.893 25.4192C163.349 26.9333 161.412 27.6904 159.082 27.6904C156.751 27.6904 154.814 26.9333 153.27 25.4192C151.727 23.8903 150.955 21.9383 150.955 19.5633C150.955 17.1882 151.727 15.2436 153.27 13.7296ZM163.98 14.5979C162.704 13.3065 161.071 12.6608 159.082 12.6608C157.093 12.6608 155.46 13.3065 154.183 14.5979C152.907 15.8894 152.268 17.5445 152.268 19.5633C152.268 21.5821 152.907 23.2372 154.183 24.5286C155.46 25.82 157.093 26.4657 159.082 26.4657C161.071 26.4657 162.704 25.82 163.98 24.5286C165.257 23.2372 165.895 21.5821 165.895 19.5633C165.895 17.5445 165.257 15.8894 163.98 14.5979Z"/>
</mask>
<path d="M19.7161 27.6904C17.2075 27.6904 15.1961 26.9407 13.682 25.4415C12.1679 23.9423 11.4109 21.9828 11.4109 19.5633C11.4109 17.1437 12.1679 15.1843 13.682 13.685C15.1961 12.1858 17.2075 11.4362 19.7161 11.4362C21.7052 11.4362 23.5013 12.0299 25.1045 13.2174L24.3475 14.2639C22.8927 13.1952 21.3415 12.6608 19.6939 12.6608C17.6157 12.6608 15.9309 13.3065 14.6395 14.5979C13.3629 15.8745 12.7246 17.5296 12.7246 19.5633C12.7246 21.5969 13.3629 23.2594 14.6395 24.5509C15.9309 25.8274 17.6157 26.4657 19.6939 26.4657C21.3415 26.4657 22.8927 25.9314 24.3475 24.8626L25.1045 25.9091C23.5013 27.0966 21.7052 27.6904 19.7161 27.6904Z" fill="#0A4A83"/>
<path d="M58.9722 11.7701H60.1968V27.3564H58.9722V19.6078H49.5537V27.3564H48.329V11.7701H49.5537V18.4277H58.9722V11.7701Z" fill="#0A4A83"/>
<path d="M95.1863 11.7701V27.3564H93.8504L84.5877 13.8409H84.5432V27.3564H83.3185V11.7701H84.6545L93.9172 25.2856H93.9617V11.7701H95.1863Z" fill="#0A4A83"/>
<path d="M124.325 11.4362C125.542 11.4362 126.812 11.7479 128.133 12.3713L127.554 13.5514C126.411 12.9577 125.342 12.6608 124.347 12.6608C123.442 12.6608 122.744 12.8612 122.254 13.262C121.765 13.6479 121.52 14.1749 121.52 14.8429C121.52 15.4218 121.69 15.9116 122.032 16.3124C122.373 16.7132 122.885 17.1585 123.568 17.6484L125.951 19.3406C126.886 20.0086 127.583 20.6691 128.044 21.3223C128.504 21.9754 128.734 22.7547 128.734 23.6602C128.734 24.9665 128.303 25.9685 127.442 26.6661C126.581 27.349 125.438 27.6904 124.013 27.6904C122.217 27.6904 120.614 27.2228 119.204 26.2876L119.827 25.152C121.193 26.0278 122.588 26.4657 124.013 26.4657C125.142 26.4657 125.995 26.206 126.574 25.6864C127.153 25.1669 127.442 24.5137 127.442 23.727C127.442 23.1333 127.264 22.5914 126.908 22.1016C126.552 21.5969 125.958 21.0477 125.127 20.4539L122.655 18.6504C121.868 18.0863 121.267 17.5222 120.852 16.9581C120.436 16.3941 120.228 15.6964 120.228 14.8651C120.228 13.8112 120.584 12.9799 121.297 12.3713C122.009 11.7479 123.019 11.4362 124.325 11.4362Z" fill="#0A4A83"/>
<path d="M153.27 13.7296C154.814 12.2006 156.751 11.4362 159.082 11.4362C161.412 11.4362 163.349 12.2006 164.893 13.7296C166.437 15.2436 167.209 17.1882 167.209 19.5633C167.209 21.9383 166.437 23.8903 164.893 25.4192C163.349 26.9333 161.412 27.6904 159.082 27.6904C156.751 27.6904 154.814 26.9333 153.27 25.4192C151.727 23.8903 150.955 21.9383 150.955 19.5633C150.955 17.1882 151.727 15.2436 153.27 13.7296ZM163.98 14.5979C162.704 13.3065 161.071 12.6608 159.082 12.6608C157.093 12.6608 155.46 13.3065 154.183 14.5979C152.907 15.8894 152.268 17.5445 152.268 19.5633C152.268 21.5821 152.907 23.2372 154.183 24.5286C155.46 25.82 157.093 26.4657 159.082 26.4657C161.071 26.4657 162.704 25.82 163.98 24.5286C165.257 23.2372 165.895 21.5821 165.895 19.5633C165.895 17.5445 165.257 15.8894 163.98 14.5979Z" fill="#0A4A83"/>
<path d="M19.7161 27.6904C17.2075 27.6904 15.1961 26.9407 13.682 25.4415C12.1679 23.9423 11.4109 21.9828 11.4109 19.5633C11.4109 17.1437 12.1679 15.1843 13.682 13.685C15.1961 12.1858 17.2075 11.4362 19.7161 11.4362C21.7052 11.4362 23.5013 12.0299 25.1045 13.2174L24.3475 14.2639C22.8927 13.1952 21.3415 12.6608 19.6939 12.6608C17.6157 12.6608 15.9309 13.3065 14.6395 14.5979C13.3629 15.8745 12.7246 17.5296 12.7246 19.5633C12.7246 21.5969 13.3629 23.2594 14.6395 24.5509C15.9309 25.8274 17.6157 26.4657 19.6939 26.4657C21.3415 26.4657 22.8927 25.9314 24.3475 24.8626L25.1045 25.9091C23.5013 27.0966 21.7052 27.6904 19.7161 27.6904Z" stroke="#0A4A83" mask="url(#path-4-outside-1)"/>
<path d="M58.9722 11.7701H60.1968V27.3564H58.9722V19.6078H49.5537V27.3564H48.329V11.7701H49.5537V18.4277H58.9722V11.7701Z" stroke="#0A4A83" mask="url(#path-4-outside-1)"/>
<path d="M95.1863 11.7701V27.3564H93.8504L84.5877 13.8409H84.5432V27.3564H83.3185V11.7701H84.6545L93.9172 25.2856H93.9617V11.7701H95.1863Z" stroke="#0A4A83" mask="url(#path-4-outside-1)"/>
<path d="M124.325 11.4362C125.542 11.4362 126.812 11.7479 128.133 12.3713L127.554 13.5514C126.411 12.9577 125.342 12.6608 124.347 12.6608C123.442 12.6608 122.744 12.8612 122.254 13.262C121.765 13.6479 121.52 14.1749 121.52 14.8429C121.52 15.4218 121.69 15.9116 122.032 16.3124C122.373 16.7132 122.885 17.1585 123.568 17.6484L125.951 19.3406C126.886 20.0086 127.583 20.6691 128.044 21.3223C128.504 21.9754 128.734 22.7547 128.734 23.6602C128.734 24.9665 128.303 25.9685 127.442 26.6661C126.581 27.349 125.438 27.6904 124.013 27.6904C122.217 27.6904 120.614 27.2228 119.204 26.2876L119.827 25.152C121.193 26.0278 122.588 26.4657 124.013 26.4657C125.142 26.4657 125.995 26.206 126.574 25.6864C127.153 25.1669 127.442 24.5137 127.442 23.727C127.442 23.1333 127.264 22.5914 126.908 22.1016C126.552 21.5969 125.958 21.0477 125.127 20.4539L122.655 18.6504C121.868 18.0863 121.267 17.5222 120.852 16.9581C120.436 16.3941 120.228 15.6964 120.228 14.8651C120.228 13.8112 120.584 12.9799 121.297 12.3713C122.009 11.7479 123.019 11.4362 124.325 11.4362Z" stroke="#0A4A83" mask="url(#path-4-outside-1)"/>
<path d="M153.27 13.7296C154.814 12.2006 156.751 11.4362 159.082 11.4362C161.412 11.4362 163.349 12.2006 164.893 13.7296C166.437 15.2436 167.209 17.1882 167.209 19.5633C167.209 21.9383 166.437 23.8903 164.893 25.4192C163.349 26.9333 161.412 27.6904 159.082 27.6904C156.751 27.6904 154.814 26.9333 153.27 25.4192C151.727 23.8903 150.955 21.9383 150.955 19.5633C150.955 17.1882 151.727 15.2436 153.27 13.7296ZM163.98 14.5979C162.704 13.3065 161.071 12.6608 159.082 12.6608C157.093 12.6608 155.46 13.3065 154.183 14.5979C152.907 15.8894 152.268 17.5445 152.268 19.5633C152.268 21.5821 152.907 23.2372 154.183 24.5286C155.46 25.82 157.093 26.4657 159.082 26.4657C161.071 26.4657 162.704 25.82 163.98 24.5286C165.257 23.2372 165.895 21.5821 165.895 19.5633C165.895 17.5445 165.257 15.8894 163.98 14.5979Z" stroke="#0A4A83" mask="url(#path-4-outside-1)"/>
<path d="M35.9895 1.90967H1V36.8992H35.9895M35.9895 1.90967V36.8992M35.9895 1.90967H70.979M35.9895 36.8992H70.979M70.979 1.90967V36.8992M70.979 1.90967H105.968M70.979 36.8992H105.968M105.968 1.90967V36.8992M105.968 1.90967H140.958M105.968 36.8992H140.958M140.958 1.90967V36.8992M140.958 1.90967H175.947V36.8992H140.958" stroke="#0A4A83" stroke-width="2"/>
<defs>
<clipPath id="clip0">
<rect x="-262" y="-11" width="1920" height="3391" fill="white"/>
</clipPath>
</defs>
    </symbol>
</svg>
