<svg width="99" height="60" viewBox="0 0 99 60" fill="none" xmlns="http://www.w3.org/2000/svg">
    <symbol id="logo" width="99" height="60" viewBox="0 0 99 60" fill="none">
<path d="M14.4643 42.5357C10.4643 42.5357 7.17857 41.3452 4.60714 38.9643C2.03571 36.5833 0.75 33.4286 0.75 29.5C0.75 25.5714 2.03571 22.4167 4.60714 20.0357C7.17857 17.6548 10.4643 16.4643 14.4643 16.4643C17.7976 16.4643 20.7857 17.3929 23.4286 19.25L20.4286 24.1071C18.5 22.8214 16.5119 22.1786 14.4643 22.1786C12.25 22.1786 10.4286 22.8452 9 24.1786C7.57143 25.4881 6.85714 27.2619 6.85714 29.5C6.85714 31.7381 7.57143 33.5238 9 34.8571C10.4286 36.1667 12.25 36.8214 14.4643 36.8214C16.5119 36.8214 18.5 36.1786 20.4286 34.8929L23.4286 39.75C20.7857 41.6071 17.7976 42.5357 14.4643 42.5357Z" fill="white"/>
<path d="M30.8926 0V27.6786H30.964C32.1545 25.869 33.9164 24.9643 36.2497 24.9643C38.1545 24.9643 39.6664 25.5357 40.7854 26.6786C41.9045 27.8214 42.464 29.5238 42.464 31.7857V42H37.0712V33.2857C37.0712 30.9048 36.0712 29.7143 34.0712 29.7143C31.9521 29.7143 30.8926 31.0476 30.8926 33.7143V42H25.4997V0H30.8926Z" fill="white"/>
<path d="M56.3382 24.9643C58.2429 24.9643 59.7548 25.5357 60.8739 26.6786C61.9929 27.8214 62.5525 29.5238 62.5525 31.7857V60H57.1953V33.2857C57.1953 30.9048 56.1834 29.7143 54.1596 29.7143C52.0406 29.7143 50.981 31.0476 50.981 33.7143V42H45.5882V25.5H50.8739V28H50.9453C52.1358 25.9762 53.9334 24.9643 56.3382 24.9643Z" fill="white"/>
<path d="M71.8909 42.5357C69.2004 42.5357 66.7123 41.9643 64.4266 40.8214L66.4623 36.3929C68.629 37.6548 70.5814 38.2857 72.3195 38.2857C73.3195 38.2857 73.8195 38.0357 73.8195 37.5357C73.8195 37.4167 73.7957 37.3095 73.748 37.2143C73.7242 37.119 73.6528 37.0476 73.5338 37C73.4385 36.9286 73.3552 36.881 73.2838 36.8571C73.2361 36.8095 73.129 36.7619 72.9623 36.7143C72.8195 36.6429 72.7242 36.5952 72.6766 36.5714L69.7838 35.4286C67.0933 34.4048 65.748 32.7024 65.748 30.3214C65.748 28.6071 66.3433 27.2857 67.5338 26.3571C68.7242 25.4286 70.4861 24.9643 72.8195 24.9643C74.7242 24.9643 76.7123 25.2976 78.7838 25.9643L77.2838 30.3214C75.3076 29.5119 73.6766 29.1071 72.3909 29.1071C71.5099 29.1071 71.0695 29.3452 71.0695 29.8214C71.0695 30.0595 71.1647 30.25 71.3552 30.3929C71.5457 30.5119 71.8671 30.6667 72.3195 30.8571L75.1766 31.9286C76.51 32.4286 77.51 33.0595 78.1766 33.8214C78.8433 34.5833 79.1766 35.631 79.1766 36.9643C79.1766 38.869 78.5338 40.2738 77.248 41.1786C75.9623 42.0833 74.1766 42.5357 71.8909 42.5357Z" fill="white"/>
<path d="M89.555 24.9643C92.2693 24.9643 94.4954 25.7738 96.2335 27.3929C97.9716 29.0119 98.8407 31.131 98.8407 33.75C98.8407 36.369 97.9716 38.4881 96.2335 40.1071C94.4954 41.7262 92.2693 42.5357 89.555 42.5357C86.8645 42.5357 84.6502 41.7262 82.9121 40.1071C81.174 38.4881 80.305 36.369 80.305 33.75C80.305 31.131 81.174 29.0119 82.9121 27.3929C84.6502 25.7738 86.8645 24.9643 89.555 24.9643ZM89.555 29.8929C88.4597 29.8929 87.5431 30.25 86.805 30.9643C86.0669 31.6786 85.6978 32.6071 85.6978 33.75C85.6978 34.8929 86.0669 35.8214 86.805 36.5357C87.5431 37.25 88.4597 37.6071 89.555 37.6071C90.674 37.6071 91.5907 37.2619 92.305 36.5714C93.0431 35.8571 93.4121 34.9167 93.4121 33.75C93.4121 32.5833 93.0431 31.6548 92.305 30.9643C91.5907 30.25 90.674 29.8929 89.555 29.8929Z" fill="white"/>
    </symbol>
</svg>
