<svg width="13" height="13" viewBox="0 0 13 13" fill="none" xmlns="http://www.w3.org/2000/svg">
<path fill-rule="evenodd" clip-rule="evenodd" d="M6.5 1.18182C3.56285 1.18182 1.18182 3.56285 1.18182 6.5C1.18182 9.43715 3.56285 11.8182 6.5 11.8182C9.43715 11.8182 11.8182 9.43715 11.8182 6.5C11.8182 3.56285 9.43715 1.18182 6.5 1.18182ZM0 6.5C0 2.91015 2.91015 0 6.5 0C10.0899 0 13 2.91015 13 6.5C13 10.0899 10.0899 13 6.5 13C2.91015 13 0 10.0899 0 6.5Z" fill="black"/>
<path fill-rule="evenodd" clip-rule="evenodd" d="M6.5 2.36364C6.82635 2.36364 7.09091 2.6282 7.09091 2.95455V6.13479L9.1279 7.15329C9.4198 7.29924 9.53811 7.65419 9.39216 7.94608C9.24622 8.23798 8.89127 8.35629 8.59937 8.21034L6.23574 7.02852C6.03555 6.92843 5.90909 6.72382 5.90909 6.5V2.95455C5.90909 2.6282 6.17365 2.36364 6.5 2.36364Z" fill="black"/>
</svg>
