<svg xmlns="http://www.w3.org/2000/svg">
    <symbol id="logo-n" width="170" height="35" viewBox="0 0 553 117" fill="none">
<path d="M79.7213 39.6834L80.1726 39.0594L79.5538 38.6011C74.426 34.8026 68.6682 32.899 62.3043 32.899C54.3232 32.899 47.8469 35.2899 42.9588 40.1301C38.0738 44.9672 35.6528 51.2808 35.6528 58.9955C35.6528 66.7102 38.0738 73.0239 42.9588 77.8609C47.8469 82.7012 54.3232 85.0921 62.3043 85.0921C68.6682 85.0921 74.426 83.1884 79.5538 79.39L80.1726 78.9316L79.7213 78.3077L77.3629 75.0476L76.9031 74.4119L76.2708 74.8764C71.8593 78.1176 67.186 79.7194 62.2349 79.7194C55.9356 79.7194 50.8956 77.7918 47.0401 73.9823C43.2273 70.1234 41.3029 65.1509 41.3029 58.9955C41.3029 52.8384 43.2283 47.8899 47.0401 44.0781C50.8966 40.2216 55.9365 38.2716 62.2349 38.2716C67.186 38.2716 71.8593 39.8735 76.2708 43.1146L76.9031 43.5791L77.3629 42.9435L79.7213 39.6834ZM184.596 33.9394H183.817V34.7182V54.6792H156.034V34.7182V33.9394H155.255H151.44H150.661V34.7182V83.2728V84.0516H151.44H155.255H156.034V83.2728V59.9131H183.817V83.2728V84.0516H184.596H188.411H189.189V83.2728V34.7182V33.9394H188.411H184.596ZM298.189 34.7182V33.9394H297.411H293.596H292.817V34.7182V74.5104L265.244 34.278L265.012 33.9394H264.602H260.44H259.661V34.7182V83.2728V84.0516H260.44H264.255H265.034V83.2728V43.4807L292.606 83.7131L292.838 84.0516H293.249H297.411H298.189V83.2728V34.7182ZM400.745 36.9341L401.093 36.2242L400.378 35.8867C396.179 33.9052 392.112 32.899 388.184 32.899C384 32.899 380.648 33.8977 378.241 36.0029C375.828 38.0659 374.643 40.8828 374.643 44.3598C374.643 47.0837 375.326 49.4273 376.737 51.342C378.094 53.184 380.033 54.9954 382.526 56.7828C382.527 56.7834 382.528 56.784 382.528 56.7845L390.222 62.3992L390.229 62.4038C392.787 64.2314 394.557 65.8827 395.594 67.3521L395.601 67.361C396.616 68.7568 397.117 70.2849 397.117 71.9665C397.117 74.1991 396.307 76.0221 394.67 77.4909C393.062 78.9338 390.621 79.7194 387.213 79.7194C382.943 79.7194 378.74 78.4095 374.593 75.7502L373.892 75.3001L373.49 76.031L371.548 79.5685L371.203 80.1965L371.8 80.5924C376.329 83.5956 381.475 85.0921 387.213 85.0921C391.776 85.0921 395.523 83.9978 398.379 81.7327L398.386 81.7276C401.284 79.3792 402.697 76.0158 402.697 71.7584C402.697 68.7993 401.943 66.2097 400.405 64.0267C398.904 61.8964 396.657 59.7796 393.701 57.6681L393.699 57.6669L386.28 52.3974C386.28 52.3972 386.279 52.397 386.279 52.3968C384.177 50.8888 382.639 49.544 381.633 48.3634C380.702 47.2701 380.223 45.9286 380.223 44.2904C380.223 42.4286 380.892 41.0203 382.216 39.9774L382.221 39.9729L382.227 39.9684C383.565 38.8738 385.537 38.2716 388.254 38.2716C391.196 38.2716 394.402 39.1499 397.883 40.9585L398.59 41.3259L398.941 40.6103L400.745 36.9341ZM515.108 77.7942L515.111 77.7915C520.082 72.8679 522.556 66.5808 522.556 58.9955C522.556 51.4102 520.082 45.1446 515.108 40.2662C510.142 35.3494 503.906 32.899 496.459 32.899C489.012 32.899 482.776 35.3494 477.81 40.2662C472.836 45.1446 470.363 51.4102 470.363 58.9955C470.363 66.5808 472.836 72.8679 477.807 77.7915L477.81 77.7942C482.777 82.6655 489.012 85.0921 496.459 85.0921C503.906 85.0921 510.141 82.6655 515.108 77.7942ZM496.459 38.2716C502.469 38.2716 507.349 40.2147 511.165 44.0749C514.981 47.9354 516.906 52.8865 516.906 58.9955C516.906 65.1045 514.981 70.0557 511.165 73.9161C507.349 77.7763 502.469 79.7194 496.459 79.7194C490.449 79.7194 485.569 77.7763 481.753 73.9161C477.937 70.0557 476.013 65.1045 476.013 58.9955C476.013 52.8865 477.937 47.9354 481.753 44.0749C485.569 40.2147 490.449 38.2716 496.459 38.2716Z" fill="#0A4A83" stroke="#0A4A83" stroke-width="1.55761"/>
<path d="M113 4H4V113H113M113 4V113M113 4H222M113 113H222M222 4V113M222 4H331M222 113H331M331 4V113M331 4H440M331 113H440M440 4V113M440 4H549V113H440" stroke="#0A4A83" stroke-width="6.23044"/>
</symbol>
</svg>
