<svg  xmlns="http://www.w3.org/2000/svg">
    <symbol id="ab-03" width="164" height="132" viewBox="0 0 164 132" fill="none">
<path d="M141.97 84.7626L138.629 71.3349C139.542 71.14 140.228 70.3257 140.228 69.3502V67.1852C140.228 62.4846 136.422 58.6605 131.744 58.6605H116.528V54.1948C116.528 51.8817 114.656 50 112.354 50H34.7922C32.4903 50 30.6178 51.8817 30.6178 54.1948V91.0004C30.6178 92.1212 31.5221 93.0302 32.6377 93.0302C33.7531 93.0302 34.6576 92.1215 34.6576 91.0004V54.1948C34.6576 54.1201 34.7179 54.0596 34.7922 54.0596H112.354C112.428 54.0596 112.488 54.1201 112.488 54.1948V91.0009C112.488 92.1217 113.393 93.0307 114.508 93.0307C115.624 93.0307 116.528 92.122 116.528 91.0009V88.6999H140.355C140.357 88.6999 140.361 88.7004 140.361 88.7004C140.363 88.7004 140.366 88.7002 140.366 88.7002C143.298 88.7022 145.788 90.636 146.643 93.3008H140.362C139.247 93.3008 138.342 94.2095 138.342 95.3306V99.6606C138.342 103.167 141.181 106.02 144.671 106.02H146.96V114.951H141.679C139.944 109.917 135.182 106.291 129.589 106.291C123.997 106.291 119.235 109.917 117.5 114.951H116.528V99.6603C116.528 98.5395 115.623 97.6306 114.508 97.6306C113.392 97.6306 112.488 98.5392 112.488 99.6603V114.95H70.5809C68.846 109.916 64.0838 106.29 58.4917 106.29C52.8996 106.29 48.1372 109.916 46.4025 114.95H34.7922C34.7179 114.95 34.6576 114.89 34.6576 114.815V110.35H43.4103C44.5257 110.35 45.4302 109.441 45.4302 108.32C45.4302 107.199 44.5259 106.29 43.4103 106.29H24.0199C22.9045 106.29 22 107.199 22 108.32C22 109.441 22.9043 110.35 24.0199 110.35H30.6181V114.815C30.6181 117.128 32.4906 119.01 34.7924 119.01H45.703C45.7025 119.055 45.6995 119.1 45.6995 119.145C45.6995 126.233 51.4383 132 58.4917 132C65.5451 132 71.2839 126.233 71.2839 119.145C71.2839 119.1 71.2809 119.055 71.2804 119.01H116.801C116.8 119.055 116.797 119.1 116.797 119.145C116.797 126.233 122.536 132 129.589 132C136.643 132 142.382 126.233 142.382 119.145C142.382 119.1 142.379 119.055 142.378 119.01H148.98C150.095 119.01 151 118.101 151 116.98V95.3301C151 89.9849 147.076 85.5437 141.97 84.7626ZM116.528 62.7198H131.744C134.195 62.7198 136.188 64.723 136.188 67.1852V67.3204H116.528V62.7198ZM116.528 84.6406V71.3798H134.476L137.775 84.6406H116.528ZM58.4917 127.941C53.6655 127.941 49.7391 123.996 49.7391 119.146C49.7391 114.296 53.6655 110.35 58.4917 110.35C63.3179 110.35 67.2443 114.296 67.2443 119.146C67.2443 123.996 63.3179 127.941 58.4917 127.941ZM129.59 127.941C124.764 127.941 120.837 123.996 120.837 119.146C120.837 114.296 124.764 110.35 129.59 110.35C134.416 110.35 138.343 114.296 138.343 119.146C138.343 123.996 134.416 127.941 129.59 127.941ZM146.961 101.961H144.671C143.409 101.961 142.382 100.929 142.382 99.6603V97.3599H146.96L146.961 101.961Z" fill="#0A4A83"/>
<path d="M105.89 106.291H75.7276C74.6122 106.291 73.7077 107.2 73.7077 108.321C73.7077 109.442 74.6119 110.351 75.7276 110.351H105.89C107.006 110.351 107.91 109.442 107.91 108.321C107.91 107.2 107.006 106.291 105.89 106.291Z" fill="#0A4A83"/>
<path d="M54.1828 97.6308H28.3288C27.2134 97.6308 26.3089 98.5395 26.3089 99.6606C26.3089 100.782 27.2132 101.69 28.3288 101.69H54.1828C55.2982 101.69 56.2027 100.782 56.2027 99.6606C56.2027 98.5395 55.2982 97.6308 54.1828 97.6308Z" fill="#0A4A83"/>
<path d="M47.9758 35H2.02421C0.906439 35 0 35.8953 0 37C0 38.1047 0.906186 39 2.02421 39H47.9758C49.0936 39 50 38.1047 50 37C50 35.8953 49.0936 35 47.9758 35Z" fill="#0A4A83"/>
<path d="M156.976 24H111.024C109.906 24 109 24.8953 109 26C109 27.1047 109.906 28 111.024 28H156.976C158.094 28 159 27.1047 159 26C159 24.8953 158.094 24 156.976 24Z" fill="#0A4A83"/>
<path d="M61.9765 23H6.02349C4.90612 23 4 23.8953 4 25C4 26.1047 4.90586 27 6.02349 27H61.9765C63.0939 27 64 26.1047 64 25C64 23.8953 63.0939 23 61.9765 23Z" fill="#0A4A83"/>
<path d="M41.9693 29H26.0307C24.9093 29 24 29.8953 24 31C24 32.1047 24.9091 33 26.0307 33H41.9693C43.0907 33 44 32.1047 44 31C44 29.8953 43.0907 29 41.9693 29Z" fill="#0A4A83"/>
<path d="M103.969 0H88.0307C86.9093 0 86 0.895347 86 2C86 3.10465 86.9091 4 88.0307 4H103.969C105.091 4 106 3.10465 106 2C106 0.895347 105.091 0 103.969 0Z" fill="#0A4A83"/>
<path d="M161.975 17H126.025C124.907 17 124 17.8953 124 19C124 20.1047 124.907 21 126.025 21H161.975C163.093 21 164 20.1047 164 19C164 17.8953 163.093 17 161.975 17Z" fill="#0A4A83"/>
<path d="M118.976 7H73.0242C71.9064 7 71 7.89535 71 9C71 10.1047 71.9062 11 73.0242 11H118.976C120.094 11 121 10.1047 121 9C121 7.89535 120.094 7 118.976 7Z" fill="#0A4A83"/>
<path d="M58.2034 114.744C55.8856 114.744 54 116.595 54 118.872C54 121.148 55.8856 123 58.2034 123C60.5213 123 62.4068 121.148 62.4068 118.872C62.4068 116.595 60.5213 114.744 58.2034 114.744Z" fill="#D3122B"/>
<path d="M129.797 114.744C127.479 114.744 125.593 116.595 125.593 118.872C125.593 121.148 127.479 123 129.797 123C132.114 123 134 121.148 134 118.872C134 116.595 132.114 114.744 129.797 114.744Z" fill="#D3122B"/>
<path d="M92.184 70.5849C91.3899 69.805 90.1018 69.805 89.3077 70.5851L71.2204 88.3484L61.8111 79.1076C61.0168 78.3274 59.729 78.3274 58.9349 79.1076C58.1405 79.8877 58.1405 81.1522 58.9349 81.9324L69.7824 92.5857C70.1794 92.9759 70.7 93.1707 71.2204 93.1707C71.7407 93.1707 72.2616 92.9759 72.6584 92.5857L92.1837 73.4099C92.9781 72.6295 92.9781 71.365 92.184 70.5849Z" fill="#D3122B"/>
    </symbol>
</svg>
