<svg  xmlns="http://www.w3.org/2000/svg">
    <symbol id="ab-01" width="102" height="132" viewBox="0 0 102 132" fill="none">
<path d="M68.1724 16.4475C53.3749 9.11063 35.5497 11.9159 23.8177 23.4278C10.1823 36.8067 8.81757 58.1397 20.6434 73.05C21.0614 73.577 21.6863 73.8529 22.3179 73.8529C22.773 73.8529 23.2315 73.7098 23.6185 73.4141C24.5426 72.7084 24.7087 71.4016 23.9898 70.4949C13.4748 57.2376 14.69 38.2677 26.8162 26.3694C37.2499 16.1311 53.1011 13.636 66.2606 20.1605C67.3053 20.6792 68.5807 20.2672 69.1088 19.2419C69.6367 18.2166 69.2179 16.9654 68.1724 16.4475Z" fill="#0A4A83"/>
<path d="M85.1016 33.0617C84.5735 32.0364 83.2989 31.6249 82.2531 32.1426C81.2082 32.6605 80.7886 33.9115 81.3164 34.9373C87.9611 47.8475 85.4169 63.3988 74.9855 73.634C62.8591 85.5321 43.5262 86.7242 30.0151 76.4073C29.0908 75.7019 27.7592 75.8648 27.04 76.7713C26.3209 77.678 26.4872 78.9849 27.4113 79.6905C34.3332 84.9762 42.6127 87.576 50.8659 87.576C60.7313 87.576 70.5595 83.8606 77.984 76.5756C89.7134 65.0669 92.5737 47.5799 85.1016 33.0617Z" fill="#0A4A83"/>
<path d="M79.6241 25.1389C79.0988 24.5557 78.5471 23.9797 77.984 23.4275C77.4209 22.875 76.8342 22.3336 76.2399 21.8182C75.3625 21.0572 74.0225 21.1386 73.2477 21.9995C72.4718 22.8601 72.5543 24.1746 73.4316 24.9354C73.961 25.3944 74.4839 25.877 74.9857 26.3691C75.4871 26.8616 75.9789 27.3744 76.4469 27.8938C76.8657 28.3589 77.4496 28.5964 78.0363 28.5964C78.5352 28.5964 79.036 28.4244 79.4394 28.0748C80.3169 27.3143 80.3994 25.9997 79.6241 25.1389Z" fill="#0A4A83"/>
<path d="M100.94 53.7308C102.353 51.4551 102.353 48.6285 100.939 46.3533L98.1503 41.8655C97.7829 41.2741 97.6408 40.5718 97.7506 39.8881L98.582 34.7053C99.0058 32.064 97.8999 29.4464 95.6964 27.8735L91.374 24.7885C90.8025 24.3804 90.3963 23.7851 90.2299 23.1112L88.9711 18.0067C88.3321 15.4139 86.2934 13.4138 83.6512 12.7863L78.4488 11.5508C77.762 11.3876 77.1547 10.9891 76.7393 10.4283L73.5948 6.186C71.992 4.02398 69.324 2.93833 66.633 3.35444L61.3491 4.17016C60.6523 4.27766 59.9363 4.13845 59.334 3.77802L54.7596 1.04057C52.4405 -0.346984 49.5598 -0.346726 47.2407 1.04057L42.6668 3.77725C42.0646 4.13793 41.3491 4.27663 40.6515 4.16938L35.3692 3.35366C32.6781 2.93807 30.0099 4.0232 28.4071 6.18522L25.2631 10.4265C24.8471 10.9872 24.2402 11.3858 23.5531 11.549L18.3509 12.7842C15.709 13.4112 13.67 15.4116 13.0305 18.0041L11.7714 23.1088C11.6051 23.7828 11.1991 24.3786 10.6274 24.7862L6.30385 27.8717C4.10044 29.4441 2.99478 32.0614 3.41807 34.7027L4.24941 39.8876C4.35898 40.5715 4.2171 41.2738 3.84977 41.8647L1.06016 46.3535C-0.353431 48.629 -0.353431 51.4556 1.06042 53.7308L3.84951 58.2188C4.21683 58.8103 4.35898 59.5125 4.24915 60.1963L3.41781 65.3793C2.994 68.0204 4.09991 70.6382 6.30333 72.2109L10.6258 75.2958C11.1973 75.7034 11.6035 76.2993 11.7698 76.9732L13.0287 82.0776C13.6677 84.6704 15.7063 86.6705 18.3485 87.2981L20.521 87.814L5.81908 119.993C5.50667 120.677 5.59311 121.472 6.04583 122.076C6.49829 122.68 7.24633 122.998 8.00515 122.909L19.8347 121.521L26.6493 131.11C27.0482 131.67 27.699 132 28.3877 132C28.4536 132 28.5204 131.997 28.5866 131.991C29.347 131.921 30.0104 131.454 30.3228 130.771L45.3376 97.905L47.2402 99.0433C48.3997 99.737 49.6995 100.084 50.9996 100.084C52.2997 100.084 53.5995 99.7368 54.759 99.0433L56.7302 97.864L71.7639 130.771C72.0763 131.455 72.7395 131.921 73.5002 131.991C73.5666 131.997 73.6331 132 73.6991 132C74.3877 132 75.0388 131.671 75.4374 131.11L82.2521 121.521L94.0816 122.909C94.8399 122.998 95.5885 122.68 96.0409 122.076C96.4934 121.472 96.5803 120.677 96.2677 119.993L81.5582 87.7964L83.6489 87.3001C86.2908 86.6731 88.3297 84.6728 88.9693 82.0802L90.2284 76.9755C90.3947 76.3016 90.8009 75.7058 91.3724 75.2982L95.6959 72.2127C97.8993 70.6403 99.005 68.0229 98.5817 65.3817L97.7504 60.1968C97.6408 59.5128 97.7827 58.8105 98.15 58.2196L100.94 53.7308ZM27.9854 125.717L22.5849 118.118C22.1371 117.488 21.3715 117.15 20.5943 117.242L11.2196 118.342L24.6143 89.0228C24.8592 89.1994 25.0789 89.4111 25.2599 89.6558L28.4045 93.8981C28.7032 94.301 29.039 94.6664 29.405 94.9917L22.3547 110.424C21.876 111.472 22.3536 112.703 23.422 113.173C23.7036 113.297 23.9982 113.355 24.2877 113.355C25.0975 113.355 25.8711 112.897 26.2234 112.125L33.2488 96.7485C33.9401 96.8415 34.6519 96.84 35.3663 96.7296L40.6502 95.9139C40.9665 95.8652 41.2863 95.8696 41.5977 95.9201L27.9854 125.717ZM90.8676 118.342L81.4927 117.242C80.7147 117.151 79.9499 117.488 79.5022 118.118L74.1016 125.717L60.4836 95.9085C60.7692 95.8704 61.0606 95.8704 61.3488 95.9147L66.6309 96.7304C67.3742 96.8451 68.1149 96.8415 68.8324 96.7366L75.8631 112.126C76.2159 112.898 76.989 113.356 77.7988 113.356C78.0886 113.356 78.3831 113.297 78.6645 113.173C79.7328 112.703 80.2108 111.472 79.7318 110.424L72.6546 94.9335C72.996 94.6225 73.3115 94.2784 73.5929 93.8989L76.737 89.6576C76.9351 89.3902 77.1779 89.161 77.4506 88.9757L90.8676 118.342ZM97.3194 51.5647L94.5298 56.0535C93.6404 57.4854 93.2962 59.1864 93.5619 60.8431L94.3932 66.0277C94.5679 67.118 94.1113 68.1985 93.2019 68.8477L88.8781 71.9335C87.4942 72.9214 86.5099 74.3644 86.1074 75.9966L84.8483 81.1013C84.5843 82.1715 83.7429 82.9972 82.652 83.2563L77.4496 84.4915C75.7858 84.8865 74.315 85.8523 73.3081 87.2104L70.164 91.4517C69.5024 92.3445 68.4015 92.7921 67.2898 92.6204L62.0075 91.8046C60.3188 91.544 58.5849 91.8812 57.1254 92.7544L52.5517 95.4911C51.5945 96.0635 50.4048 96.0635 49.4481 95.4911L44.8734 92.7542C43.7357 92.0733 42.4314 91.7185 41.1116 91.7185C40.7385 91.7185 40.3635 91.7469 39.9917 91.8044L34.7076 92.6201C33.5962 92.7918 32.4952 92.3435 31.8336 91.4512L28.6888 87.2089C27.6819 85.851 26.2113 84.8852 24.5479 84.4902L19.3454 83.2548C18.2547 82.9957 17.4132 82.1702 17.1491 81.0997L15.8903 75.9953C15.4877 74.3628 14.5037 72.9193 13.1193 71.9314L8.79708 68.8461C7.88744 68.197 7.43105 67.1162 7.60604 66.0259L8.43738 60.8429C8.70302 59.1859 8.35934 57.4848 7.46941 56.0527L4.68032 51.5644C4.09676 50.6252 4.09676 49.4581 4.68032 48.5191L7.46993 44.0304C8.3596 42.5985 8.70354 40.8974 8.4379 39.2407L7.60656 34.0561C7.43183 32.9658 7.88849 31.8853 8.79787 31.2361L13.1217 28.1504C14.5056 27.1624 15.4898 25.7195 15.8924 24.0872L17.1515 18.9825C17.4155 17.9124 18.2568 17.0866 19.3478 16.8275L24.5502 15.5923C26.2139 15.1973 27.6848 14.2316 28.6914 12.8734L31.8355 8.63213C32.4971 7.73958 33.598 7.29124 34.7097 7.4632L39.992 8.27892C41.681 8.54009 43.4148 8.20235 44.8741 7.32914L49.4478 4.59245C50.405 4.02011 51.5948 4.02011 52.5514 4.59245L57.1262 7.3294C58.5855 8.20287 60.3196 8.54034 62.0078 8.27944L67.2919 7.46372C68.4028 7.29279 69.5043 7.74035 70.1659 8.63264L73.3107 12.875C74.3176 14.2329 75.7882 15.1986 77.4517 15.5936L82.6541 16.829C83.7448 17.0881 84.5863 17.9137 84.8504 18.9841L86.1093 24.0885C86.5118 25.721 87.4958 27.1645 88.8802 28.1524L93.2027 31.2374C94.1123 31.8866 94.5687 32.9674 94.3937 34.0576L93.5624 39.2407C93.2968 40.8977 93.6404 42.5987 94.5304 44.0309L97.3194 48.5191C97.9033 49.4584 97.9033 50.6255 97.3194 51.5647Z" fill="#0A4A83"/>
<path d="M75.8079 43.5697C75.3407 42.1584 74.1176 41.1731 72.6157 40.9983L59.859 39.514L54.4784 28.0684C53.8449 26.7211 52.512 25.884 50.9996 25.884C49.4875 25.884 48.1543 26.7211 47.5208 28.0684L42.1402 39.5143L29.3835 40.9985C27.8816 41.1733 26.6582 42.1587 26.1913 43.5699C25.7242 44.9804 26.1235 46.4832 27.2334 47.4905L36.6648 56.0486L34.1613 68.4118C33.8668 69.8674 34.4438 71.3132 35.6674 72.1851C36.3424 72.6662 37.1256 72.9098 37.9139 72.9098C38.5547 72.9098 39.1985 72.7489 39.7899 72.4241L50.9993 66.2678L62.2088 72.4241C63.5285 73.1491 65.1079 73.0576 66.3316 72.1854C67.5552 71.3132 68.1322 69.8671 67.8374 68.4118L65.3339 56.0489L74.7653 47.4908C75.8757 46.4835 76.275 44.981 75.8079 43.5697ZM61.5842 53.785C61.0429 54.2761 60.8007 55.0081 60.9441 55.7176L63.506 68.3687L52.0348 62.0685C51.7132 61.8919 51.3564 61.8035 50.9993 61.8035C50.6423 61.8035 50.2857 61.8917 49.9638 62.0685L38.4927 68.3687L41.0545 55.7176C41.1985 55.0078 40.956 54.2761 40.4145 53.785L30.7632 45.0271L43.8181 43.5083C44.5502 43.4232 45.1847 42.9708 45.4937 42.3141L50.9996 30.6014L56.5055 42.3141C56.8145 42.9708 57.4488 43.4232 58.1811 43.5083L71.2355 45.0271L61.5842 53.785Z" fill="#D3122B"/>
    </symbol>
</svg>
