<svg xmlns="http://www.w3.org/2000/svg">
    <symbol id="akticom" width="118" height="43" viewBox="0 0 118 43" fill="none">
<path fill-rule="evenodd" clip-rule="evenodd" d="M12.4822 14.326L31.6245 0.301986C31.8104 0.136694 32.0456 0.033291 32.2961 0.00677506C32.5465 -0.0197409 32.7991 0.0320017 33.0173 0.154514C33.2354 0.277025 33.4077 0.463938 33.5092 0.688113C33.6107 0.912288 33.6362 1.16207 33.5818 1.40124L30.6608 24.5317C30.5537 26.6939 29.0496 26.6382 28.4196 25.7956C27.4857 23.6528 25.4936 21.4373 22.7618 19.6843C23.1717 19.7072 23.581 19.6298 23.9521 19.4591C27.9041 17.3502 26.3004 14.1323 26.8707 10.452C23.8824 12.7691 20.2093 13.033 20.309 17.4131C20.3414 17.8002 20.4714 18.1736 20.6875 18.5003L20.7074 18.5318C17.7988 17.1202 14.8404 16.5584 12.4747 16.8369C11.4015 16.7352 10.6096 15.4979 12.4822 14.326Z" fill="white"/>
<path fill-rule="evenodd" clip-rule="evenodd" d="M7.96497 20.476C2.75296 24.0111 -0.902675 29.304 0.195508 30.5679C1.53026 32.0957 2.12044 29.9941 3.94328 32.0207C5.76612 34.0473 3.75402 39.408 8.09695 42.1198C12.6864 44.4224 16.4491 40.0496 19.1709 40.5678C21.8927 41.0859 20.3164 42.6355 22.3435 42.989C24.0119 43.2844 26.8981 37.5606 27.4434 31.4057C27.8468 26.8416 25.5608 23.614 21.818 21.2363C22.1716 22.0499 21.9749 23.6988 19.5021 27.4227C16.0507 32.6236 13.3488 34.6865 12.7213 34.3233C12.0937 33.9601 12.5719 30.6696 15.4779 25.1636C17.5598 21.2194 18.9269 20.2291 19.8308 20.1201C15.8465 18.1661 11.8273 17.8538 7.96497 20.476Z" fill="white"/>
<path d="M113.652 34.2894C111.544 34.2894 110.49 33.3855 110.49 31.5776C110.49 30.9214 110.674 29.8827 111.045 28.4299C111.416 26.9772 111.6 26.0087 111.6 25.4493C111.6 24.6285 111.304 24.2169 110.706 24.2169C110.109 24.2169 109.581 24.677 109.112 25.5898C108.972 25.8605 108.859 26.1434 108.774 26.4348L107.098 34.1441H103.539L105.347 25.8489C105.398 25.6525 105.423 25.4508 105.422 25.2484C105.422 24.5486 105.173 24.1951 104.692 24.1951C104.445 24.1985 104.202 24.2604 103.986 24.3756C103.769 24.4908 103.584 24.6558 103.447 24.8561C103.089 25.3306 102.824 25.866 102.668 26.4348L100.992 34.1441H97.4308L99.1043 26.4735C98.4362 26.7215 97.7436 26.9016 97.0374 27.0111C96.8432 29.2015 96.1949 30.9529 95.0925 32.2652C93.9902 33.5776 92.6704 34.2345 91.1331 34.2362C89.2339 34.2362 88.0104 33.5566 87.4625 32.1974C87.3591 31.9412 87.284 31.6749 87.2384 31.4033C85.6198 33.3241 83.7305 34.2846 81.5707 34.2846C80.397 34.2846 79.4606 33.9892 78.7617 33.3984C78.3646 33.0498 78.0771 32.599 77.9325 32.0982C76.8883 33.5509 75.4954 34.2773 73.7539 34.2773C73.1043 34.2777 72.4798 34.0339 72.0108 33.5969C71.6087 33.207 71.3579 32.6936 71.301 32.1442C70.2618 33.5695 68.8806 34.2822 67.1573 34.2822C66.5078 34.2825 65.8832 34.0387 65.4142 33.6018C65.0381 33.241 64.7956 32.7693 64.7244 32.2604C63.8163 33.6098 62.6866 34.2846 61.3352 34.2846C60.3059 34.2846 59.529 34.0481 59.0044 33.5751C58.4814 33.0909 58.2224 32.425 58.2224 31.5534C58.2292 31.131 58.2776 30.7102 58.3669 30.2967L58.5736 29.3597C58.6332 29.0694 58.6648 28.7744 58.6682 28.4784C58.6682 27.706 58.3719 27.3161 57.7792 27.3161C57.3085 27.3161 56.7034 27.6115 55.9539 28.2096L54.6639 34.1441H51.088L54.6764 17.8005L58.3295 17.3163L56.4743 25.7835L61.2406 22.1346H63.6959L58.7529 25.4832C59.0204 25.4153 59.2956 25.3803 59.5721 25.3791C60.4819 25.3791 61.1617 25.6568 61.6116 26.212C62.0673 26.7764 62.306 27.4778 62.2865 28.1951C62.2832 28.5015 62.2515 28.807 62.1918 29.1079L61.9129 30.3064C61.8453 30.5591 61.8052 30.818 61.7934 31.0788C61.7934 31.6744 62.1271 31.9723 62.7895 31.9723C63.4519 31.9723 64.0047 31.551 64.433 30.7059C64.56 30.4444 64.6821 30.1611 64.829 29.8488L66.3231 23.1007H65.5038L65.7105 22.1322H66.5173L67.2644 18.8126L70.9225 18.3284L70.0734 22.1298H71.5675L71.3733 23.0983H69.8791L68.2978 30.304C68.2326 30.5853 68.1992 30.8727 68.1982 31.1611C68.1982 31.7011 68.5319 31.9698 69.1943 31.9698C69.4488 31.9627 69.6991 31.9051 69.9299 31.8006C70.1607 31.6961 70.3671 31.5469 70.5365 31.3621C70.9606 30.9396 71.2667 30.4186 71.4256 29.8488L73.1015 22.1395H76.6699L74.9019 30.2992C74.8367 30.5805 74.8033 30.8679 74.8023 31.1563C74.8023 31.6962 75.136 31.965 75.7984 31.965C76.0529 31.9579 76.3032 31.9003 76.534 31.7958C76.7648 31.6913 76.9712 31.5421 77.1406 31.3573C77.3637 31.1381 77.554 30.8895 77.7059 30.6188C77.7059 30.5728 77.7059 30.5243 77.7059 30.4759C77.7123 28.6105 78.2068 26.7774 79.1427 25.1491C79.7938 23.9257 80.8451 22.9477 82.131 22.3695C82.7594 22.075 83.448 21.9218 84.1456 21.9215C86.1261 21.9215 87.1164 22.6479 87.1164 24.1007C87.1164 24.7133 86.9894 25.1588 86.7304 25.4469C86.6274 25.5767 86.496 25.6825 86.3457 25.7567C86.1953 25.8308 86.0298 25.8714 85.8613 25.8755C85.5305 25.8722 85.2082 25.7736 84.935 25.5922C85.123 25.1409 85.2251 24.6601 85.2363 24.1733C85.2363 23.5164 85.0014 23.1879 84.5315 23.1879C84.0584 23.1879 83.5629 23.5995 83.0374 24.43C82.2262 25.7738 81.7011 27.2625 81.4935 28.8076C81.409 29.3794 81.369 29.9565 81.3739 30.534C81.3739 31.6914 81.9392 32.2677 83.0748 32.2677C83.9177 32.296 84.7503 32.0811 85.4679 31.6502C86.0975 31.2335 86.6742 30.7459 87.1861 30.1975C87.2048 29.7422 87.2531 29.2885 87.3305 28.8391C87.438 28.2122 87.5962 27.5944 87.8037 26.9917C88.2193 25.681 88.952 24.4862 89.9403 23.5075C90.4621 22.9913 91.0863 22.5834 91.775 22.3087C92.4638 22.0341 93.2027 21.8982 93.947 21.9094C96.0604 21.9094 97.1179 23.1887 97.1196 25.7472V25.7714C97.2555 25.791 97.393 25.7991 97.5304 25.7956C98.1204 25.7625 98.6988 25.6229 99.2362 25.384L99.3508 25.338L100.053 22.1346H103.612L103.348 23.3792C103.714 22.9481 104.175 22.6021 104.697 22.3667C105.219 22.1312 105.788 22.0122 106.363 22.0184C107.821 22.0184 108.667 22.706 108.901 24.0813C109.807 22.719 110.954 22.0394 112.34 22.0426C113.048 22.0178 113.741 22.2422 114.292 22.6746C114.815 23.0959 115.079 23.7157 115.079 24.5293C115.058 25.4805 114.92 26.4259 114.668 27.3452L114.088 29.6914C113.976 30.097 113.912 30.5138 113.899 30.9335C113.899 31.6228 114.199 31.9674 114.8 31.9674C115.04 31.9817 115.28 31.9427 115.501 31.8534C115.723 31.764 115.921 31.6266 116.08 31.4517C116.457 30.9636 116.754 30.4222 116.962 29.8464H118C117.386 31.6123 116.613 32.8528 115.682 33.5679C115.111 34.0272 114.396 34.2834 113.655 34.2943L113.652 34.2894ZM40.8059 33.3209C41.3039 30.6607 42.2942 27.7382 43.7767 24.5535C44.9218 24.6586 46.0401 24.9525 47.0837 25.4227L45.1887 34.1393H48.7547L52.6269 16.464C52.0112 16.2077 51.3436 16.0909 50.6746 16.1226C49.2817 16.1226 47.8358 16.7925 46.3367 18.1323C44.6959 19.6393 43.2651 21.3487 42.0809 23.2169C41.5505 23.1685 41.1172 23.1443 40.7885 23.1443C39.3591 23.1443 38.1563 23.434 37.1801 24.0135C36.204 24.593 35.7259 25.2968 35.7458 26.1249C35.7361 26.3128 35.7695 26.5004 35.8436 26.6742C35.9177 26.848 36.0306 27.0036 36.1741 27.1297C36.5279 27.3982 36.9716 27.5294 37.4192 27.4977C37.7212 27.4987 38.017 27.4146 38.2709 27.2556C38.3865 27.1976 38.4845 27.1112 38.5553 27.0051C38.6261 26.8989 38.6671 26.7766 38.6743 26.6503C38.6805 26.4471 38.6423 26.2449 38.5622 26.0571C38.4925 25.8973 38.4178 25.815 38.3481 25.815C38.4371 25.6039 38.5723 25.4142 38.7443 25.2591C38.9163 25.104 39.121 24.9871 39.3441 24.9167C39.9571 24.7098 40.5983 24.5923 41.2467 24.568C40.7063 25.4857 40.2132 26.4106 39.7525 27.3525C38.3232 30.3565 37.6076 32.6873 37.606 34.3451C37.606 35.4395 38.0218 36.1925 38.8511 36.5969C39.242 36.793 39.9269 36.8923 40.903 36.8923C40.6482 36.4801 40.53 36.0016 40.5644 35.5219C40.5811 34.7897 40.6644 34.0605 40.8134 33.3427L40.8059 33.3209ZM44.2922 23.5244C45.8461 20.472 47.3336 18.5737 48.7547 17.8296L47.3178 24.367C46.342 23.9972 45.3322 23.7183 44.3022 23.5341L44.2922 23.5244ZM77.5365 18.924C77.5411 18.6708 77.4923 18.4194 77.3929 18.1853C77.2935 17.9513 77.1458 17.7395 76.9588 17.5632C76.7754 17.3815 76.5558 17.238 76.3135 17.1415C76.0712 17.0449 75.8112 16.9973 75.5493 17.0015C75.2903 16.9958 75.033 17.0436 74.7943 17.1417C74.5556 17.2397 74.3411 17.3859 74.1648 17.5705C73.9811 17.7513 73.837 17.9663 73.7411 18.2026C73.6453 18.439 73.5996 18.6918 73.607 18.9458C73.6063 19.1945 73.6563 19.4409 73.7539 19.6708C73.8516 19.9007 73.995 20.1095 74.176 20.2852C74.357 20.461 74.572 20.6002 74.8085 20.6949C75.0451 20.7895 75.2985 20.8378 75.5543 20.8368C75.813 20.8403 76.0699 20.794 76.3101 20.7005C76.5503 20.607 76.7691 20.4682 76.9538 20.292C77.1433 20.1203 77.2934 19.9116 77.3942 19.6797C77.4951 19.4477 77.5444 19.1976 77.539 18.9458L77.5365 18.924ZM94.9805 27.0667C94.5347 26.9578 94.3131 26.6019 94.3131 26.0014C94.2924 25.7413 94.3559 25.4814 94.4948 25.2582C94.6337 25.035 94.841 24.8597 95.0876 24.7569C95.0883 24.3841 95.0032 24.016 94.8385 23.6794C94.7066 23.4663 94.4476 23.3622 94.0591 23.3622C93.312 23.3622 92.5799 24.1709 91.8876 25.7835C91.1954 27.396 90.8492 28.8512 90.8492 30.1079C90.8492 30.8803 90.9189 31.3742 91.0634 31.5824C91.1715 31.7563 91.3325 31.8934 91.5241 31.9747C91.7347 32.036 91.9543 32.063 92.174 32.0546C92.7393 32.0546 93.2946 31.5703 93.8499 30.6018C94.451 29.5085 94.8353 28.3151 94.983 27.0837L94.9805 27.0667Z" fill="white"/>
<path d="M54.2082 40.4249V37.3475H54.7063C54.9187 37.3403 55.1312 37.359 55.3388 37.4032C55.5149 37.4445 55.6729 37.5395 55.7895 37.6744C55.9002 37.807 55.9593 37.9733 55.9564 38.1441C55.9574 38.2543 55.9309 38.3632 55.8792 38.4613C55.8181 38.568 55.7329 38.6599 55.6301 38.73C55.7989 38.8 55.9446 38.914 56.051 39.0593C56.1424 39.1987 56.1892 39.3614 56.1855 39.5266C56.1898 39.6976 56.1422 39.8661 56.0485 40.0109C55.9635 40.1473 55.841 40.258 55.6949 40.3305C55.5057 40.4097 55.3005 40.4462 55.0947 40.437L54.2082 40.4249ZM54.8109 37.9092V38.5581H54.9403C55.0565 38.5663 55.1719 38.5346 55.2666 38.4685C55.3018 38.4384 55.3296 38.4011 55.3481 38.3592C55.3667 38.3173 55.3754 38.272 55.3736 38.2264C55.3757 38.183 55.3676 38.1398 55.3499 38.0999C55.3322 38.0601 55.3054 38.0247 55.2715 37.9964C55.1831 37.9336 55.0745 37.9036 54.9652 37.9116L54.8109 37.9092ZM54.8109 39.0787V39.868H54.9603C55.1318 39.8829 55.3043 39.851 55.4583 39.776C55.5013 39.7453 55.5357 39.7047 55.5583 39.6577C55.5809 39.6107 55.5911 39.559 55.5878 39.5073C55.5905 39.4468 55.578 39.3865 55.5516 39.3317C55.5251 39.2769 55.4855 39.2292 55.4359 39.1925C55.286 39.1054 55.112 39.0656 54.9379 39.0787H54.8109ZM58.4341 37.3475H59.0442L60.2594 40.4225H59.6369L59.3879 39.7881H58.0979L57.8489 40.4225H57.2214L58.4391 37.3475H58.4341ZM58.7429 38.1635L58.3221 39.2191H59.1637L58.7454 38.1635H58.7429ZM62.8269 39.0569L62.7422 38.9697L61.8532 40.4225H61.1385L62.3064 38.6453L61.2481 37.3475H61.9727L62.8293 38.4467V37.3475H63.4469V38.4467L64.2936 37.3475H65.0207L63.9599 38.6429L65.1278 40.4201H64.4131L63.5241 38.9673L63.4394 39.0545V40.4201H62.8293V39.0545L62.8269 39.0569ZM66.2633 37.3475H67.9891V37.9213H66.861V38.4758H67.9891V39.0424H66.861V39.8511H67.9891V40.4249H66.2633V37.3475ZM69.2516 37.3475H69.8617V38.5073H70.9175V37.3475H71.5252V40.4225H70.9175V39.0739H69.8717V40.4225H69.2616V37.3475H69.2516ZM76.0574 37.3475C76.3102 37.3348 76.5633 37.3668 76.8044 37.4419C76.9552 37.5011 77.0819 37.6065 77.1655 37.7422C77.257 37.893 77.3028 38.0659 77.2975 38.2409C77.3044 38.4335 77.2428 38.6225 77.1232 38.776C77.0033 38.9219 76.8382 39.0263 76.6525 39.0739C76.4436 39.1144 76.2304 39.1307 76.0175 39.1223V40.4249H75.4149V37.3475H76.0574ZM76.0225 38.5581H76.2142C76.3199 38.5631 76.4256 38.5525 76.528 38.5266C76.5847 38.5073 76.6336 38.4708 76.6674 38.4225C76.7019 38.3707 76.7193 38.3099 76.7173 38.2482C76.7208 38.1964 76.7093 38.1448 76.6842 38.099C76.6592 38.0532 76.6214 38.0152 76.5753 37.9891C76.4544 37.939 76.3228 37.9182 76.1918 37.9286H76.0225V38.5581ZM78.5999 37.3475H80.3256V37.9213H79.1975V38.4758H80.3256V39.0424H79.1975V39.8511H80.3256V40.4249H78.5999V37.3475ZM81.7475 39.6211C81.8054 39.716 81.8867 39.7954 81.9841 39.852C82.0815 39.9087 82.1919 39.9408 82.3053 39.9455C82.4308 39.9503 82.5536 39.9088 82.6489 39.8293C82.6925 39.7894 82.7266 39.7409 82.749 39.6869C82.7713 39.633 82.7814 39.575 82.7784 39.5169C82.7802 39.4589 82.7698 39.401 82.748 39.3469C82.7262 39.2928 82.6933 39.2436 82.6514 39.2022C82.4963 39.0988 82.3077 39.054 82.121 39.0763H81.9915V38.5581H82.1235C82.2541 38.5674 82.3836 38.5295 82.4871 38.4516C82.5278 38.4156 82.5598 38.3714 82.5809 38.322C82.602 38.2726 82.6116 38.2193 82.6091 38.1659C82.6116 38.1176 82.6035 38.0693 82.5855 38.0243C82.5675 37.9792 82.5399 37.9384 82.5045 37.9044C82.4678 37.8713 82.4246 37.8457 82.3776 37.8291C82.3306 37.8125 82.2806 37.8051 82.2306 37.8075C82.0724 37.8183 81.9245 37.8876 81.8172 38.0012L81.4636 37.6162C81.598 37.4828 81.7613 37.3802 81.9417 37.316C82.0561 37.2853 82.1741 37.269 82.2928 37.2676C82.53 37.261 82.7613 37.3394 82.9428 37.4879C83.0298 37.5606 83.0988 37.6515 83.1445 37.7539C83.1902 37.8562 83.2115 37.9672 83.2067 38.0787C83.2067 38.1887 83.1865 38.2977 83.147 38.4007C83.0732 38.5411 82.9579 38.6566 82.8158 38.7324C82.9857 38.7947 83.1309 38.9076 83.2307 39.0551C83.3304 39.2025 83.3796 39.3769 83.3711 39.5533C83.3766 39.6824 83.3529 39.811 83.3017 39.9303C83.2505 40.0495 83.173 40.1564 83.0748 40.2433C82.8683 40.4182 82.6014 40.5107 82.3277 40.5024C82.1469 40.5052 81.9676 40.4697 81.8023 40.3983C81.6034 40.2888 81.433 40.1364 81.3042 39.9528L81.7649 39.6235L81.7475 39.6211ZM85.5426 39.7203L84.422 37.3475H85.1118L85.8588 39.0617L86.4689 37.3475H87.089L86.2473 39.546C86.1608 39.8334 85.9985 40.0938 85.7766 40.3014C85.6231 40.423 85.4318 40.4904 85.2338 40.4927C85.0645 40.4853 84.8991 40.4412 84.7496 40.3637C84.6002 40.2863 84.4703 40.1773 84.3697 40.0448L84.7656 39.6574C84.8189 39.7318 84.8881 39.7941 84.9685 39.84C85.0489 39.886 85.1385 39.9146 85.2313 39.9237C85.2917 39.9262 85.3512 39.9092 85.4006 39.8753C85.46 39.8292 85.5135 39.7763 85.56 39.7179L85.5426 39.7203ZM90.2391 40.4225L89.365 38.1635L88.476 40.4225H87.851L89.0687 37.3475H89.6788L90.894 40.4225H90.2391ZM91.9549 40.4225V37.3475H92.5575V38.5073H92.687C92.8995 38.5017 93.1116 38.5303 93.3145 38.592C93.4892 38.6541 93.6403 38.7664 93.7478 38.914C93.8717 39.0798 93.9356 39.2807 93.9296 39.4855C93.9355 39.6753 93.8807 39.8623 93.7727 40.0206C93.683 40.1543 93.5573 40.2615 93.4091 40.3305C93.2282 40.3979 93.035 40.4284 92.8414 40.4201L91.9549 40.4225ZM92.5575 39.0303V39.8632H92.7069C92.8783 39.879 93.0508 39.848 93.205 39.7736C93.2504 39.7363 93.2857 39.6888 93.3078 39.6352C93.3299 39.5816 93.3382 39.5235 93.332 39.4661C93.332 39.1755 93.1145 39.0303 92.6795 39.0303H92.5575ZM96.5991 37.3475V37.9237H96.0239V40.4201H95.4138V37.9262H94.8535V37.3475H96.5991ZM98.6909 37.3475H99.306L100.521 40.4225H99.8962L99.6471 39.7881H98.3597L98.1107 40.4225H97.4856L98.7033 37.3475H98.6909ZM98.9997 38.1635L98.5788 39.2191H99.4205L99.0022 38.1635H98.9997ZM101.38 37.3475H103.123V37.9237H102.548V40.4201H101.938V37.9262H101.378L101.38 37.3475Z" fill="white"/>
    </symbol>
</svg>
