<svg width="13" height="16" viewBox="0 0 13 16" fill="none" xmlns="http://www.w3.org/2000/svg">
<path fill-rule="evenodd" clip-rule="evenodd" d="M6.5 1.33334C5.12087 1.33334 3.79824 1.89525 2.82305 2.89545C1.84786 3.89565 1.3 5.25222 1.3 6.66672C1.3 8.73211 2.61023 10.7363 4.04687 12.2916C4.7519 13.0549 5.45913 13.6798 5.99084 14.114C6.18872 14.2756 6.36157 14.4103 6.5 14.5152C6.63843 14.4103 6.81128 14.2756 7.00916 14.114C7.54087 13.6798 8.2481 13.0549 8.95313 12.2916C10.3898 10.7363 11.7 8.73211 11.7 6.66672C11.7 5.25222 11.1521 3.89565 10.177 2.89545C9.20177 1.89525 7.87913 1.33334 6.5 1.33334ZM6.5 15.3335C6.13944 15.8882 6.1391 15.8879 6.1391 15.8879L6.13724 15.8866L6.13291 15.8837L6.11801 15.8733C6.10535 15.8645 6.0873 15.8519 6.06421 15.8355C6.01805 15.8027 5.95171 15.7549 5.86807 15.6929C5.70086 15.5691 5.46414 15.3883 5.18104 15.1571C4.61587 14.6955 3.8606 14.0287 3.10313 13.2086C1.61477 11.5973 0 9.26804 0 6.66672C3.8743e-08 4.8986 0.684824 3.20291 1.90381 1.95265C3.1228 0.7024 4.77609 0 6.5 0C8.22391 0 9.87721 0.7024 11.0962 1.95265C12.3152 3.20291 13 4.8986 13 6.66672C13 9.26804 11.3852 11.5973 9.89687 13.2086C9.1394 14.0287 8.38413 14.6955 7.81896 15.1571C7.53586 15.3883 7.29915 15.5691 7.13194 15.6929C7.0483 15.7549 6.98195 15.8027 6.93579 15.8355C6.9127 15.8519 6.89466 15.8645 6.882 15.8733L6.8671 15.8837L6.86277 15.8866L6.86139 15.8876C6.86139 15.8876 6.86055 15.8882 6.5 15.3335ZM6.5 15.3335L6.86056 15.8882C6.64222 16.0374 6.35743 16.0372 6.1391 15.8879L6.5 15.3335Z" fill="black"/>
<path fill-rule="evenodd" clip-rule="evenodd" d="M6.5 5.33338C5.78203 5.33338 5.2 5.93034 5.2 6.66672C5.2 7.40311 5.78203 8.00007 6.5 8.00007C7.21797 8.00007 7.8 7.40311 7.8 6.66672C7.8 5.93034 7.21797 5.33338 6.5 5.33338ZM3.9 6.66672C3.9 5.19395 5.06406 4.00003 6.5 4.00003C7.93594 4.00003 9.1 5.19395 9.1 6.66672C9.1 8.13949 7.93594 9.33341 6.5 9.33341C5.06406 9.33341 3.9 8.13949 3.9 6.66672Z" fill="black"/>
</svg>
