<svg width="18" height="17" viewBox="0 0 18 17" fill="none" xmlns="http://www.w3.org/2000/svg">
<path fill-rule="evenodd" clip-rule="evenodd" d="M5.25 15.5217C5.25 14.7053 5.92157 14.0435 6.75 14.0435C7.57842 14.0435 8.25 14.7053 8.25 15.5217C8.25 16.3382 7.57842 17 6.75 17C5.92157 17 5.25 16.3382 5.25 15.5217Z" fill="white"/>
<path fill-rule="evenodd" clip-rule="evenodd" d="M13.5 15.5217C13.5 14.7053 14.1716 14.0435 15 14.0435C15.8284 14.0435 16.5 14.7053 16.5 15.5217C16.5 16.3382 15.8284 17 15 17C14.1716 17 13.5 16.3382 13.5 15.5217Z" fill="white"/>
<path fill-rule="evenodd" clip-rule="evenodd" d="M0 0.73913C0 0.33092 0.335786 0 0.75 0H3.75C4.10747 0 4.41526 0.248654 4.48542 0.594092L5.11532 3.69565H17.25C17.4735 3.69565 17.6854 3.7939 17.8279 3.96362C17.9704 4.13335 18.0286 4.35685 17.9867 4.57323L16.7856 10.7801C16.6828 11.2905 16.401 11.749 15.9896 12.0754C15.5803 12.4001 15.0687 12.5733 14.5435 12.5652H7.26649C6.74129 12.5733 6.22964 12.4001 5.82035 12.0754C5.40917 11.7492 5.12748 11.2909 5.0245 10.7807L3.7716 4.61158C3.76652 4.59117 3.76229 4.57045 3.75897 4.54941L3.13524 1.47826H0.75C0.335786 1.47826 0 1.14734 0 0.73913ZM5.41555 5.17391L6.49564 10.4921C6.52993 10.6622 6.62385 10.8151 6.76096 10.9239C6.89807 11.0326 7.06965 11.0904 7.24564 11.0871L7.25999 11.087H14.55L14.5644 11.0871C14.7404 11.0904 14.9119 11.0326 15.049 10.9239C15.1855 10.8156 15.2792 10.6637 15.3139 10.4945L16.3435 5.17391H5.41555Z" fill="white"/>
</svg>
