<svg width="12" height="11" viewBox="0 0 12 11" fill="none" xmlns="http://www.w3.org/2000/svg">
<path fill-rule="evenodd" clip-rule="evenodd" d="M1.6364 1.14688C1.33764 1.14688 1.09095 1.39815 1.09095 1.70243V8.3691C1.09095 8.67339 1.33764 8.92466 1.6364 8.92466H10.3636C10.6624 8.92466 10.9091 8.67339 10.9091 8.3691V1.70243C10.9091 1.39815 10.6624 1.14688 10.3636 1.14688H1.6364ZM4.46267e-05 1.70243C4.46267e-05 0.784497 0.735156 0.0357666 1.6364 0.0357666H10.3636C11.2648 0.0357666 12 0.784497 12 1.70243V8.3691C12 9.28704 11.2648 10.0358 10.3636 10.0358H1.6364C0.735156 10.0358 4.46267e-05 9.28704 4.46267e-05 8.3691V1.70243Z" fill="black"/>
<path fill-rule="evenodd" clip-rule="evenodd" d="M0.0986462 1.38383C0.271398 1.13247 0.611506 1.07136 0.858295 1.24731L6 4.91319L11.1417 1.24731C11.3885 1.07136 11.7286 1.13247 11.9014 1.38383C12.0741 1.63519 12.0141 1.9816 11.7673 2.15755L6.3128 6.04644C6.12499 6.18034 5.87502 6.18034 5.68721 6.04644L0.232703 2.15755C-0.0140853 1.9816 -0.0741058 1.63519 0.0986462 1.38383Z" fill="black"/>
</svg>
