<svg xmlns="http://www.w3.org/2000/svg">
    <symbol id="footer-logo" width="177" height="37" viewBox="0 0 177 37" fill="none">
<rect width="177" height="37" fill="#E5E5E5"/>
<g clip-path="url(#clip0)">
<rect x="-261" y="-3282" width="1920" height="3391" fill="#FAFAFA"/>
<path d="M-261 -259H1658V108H-261V-259Z" fill="#0A4A83"/>
<mask id="path-4-outside-1" maskUnits="userSpaceOnUse" x="10.4109" y="9.52649" width="158" height="18" fill="black">
<rect fill="white" x="10.4109" y="9.52649" width="158" height="18"/>
<path d="M19.7161 26.7807C17.2075 26.7807 15.1961 26.0311 13.682 24.5318C12.1679 23.0326 11.4109 21.0732 11.4109 18.6536C11.4109 16.234 12.1679 14.2746 13.682 12.7754C15.1961 11.2761 17.2075 10.5265 19.7161 10.5265C21.7052 10.5265 23.5013 11.1203 25.1045 12.3078L24.3475 13.3543C22.8927 12.2855 21.3415 11.7511 19.6939 11.7511C17.6157 11.7511 15.9309 12.3968 14.6395 13.6883C13.3629 14.9649 12.7246 16.62 12.7246 18.6536C12.7246 20.6872 13.3629 22.3498 14.6395 23.6412C15.9309 24.9178 17.6157 25.5561 19.6939 25.5561C21.3415 25.5561 22.8927 25.0217 24.3475 23.9529L25.1045 24.9994C23.5013 26.1869 21.7052 26.7807 19.7161 26.7807Z"/>
<path d="M58.9722 10.8605H60.1968V26.4467H58.9722V18.6981H49.5537V26.4467H48.329V10.8605H49.5537V17.518H58.9722V10.8605Z"/>
<path d="M95.1863 10.8605V26.4467H93.8504L84.5877 12.9312H84.5432V26.4467H83.3185V10.8605H84.6545L93.9172 24.376H93.9617V10.8605H95.1863Z"/>
<path d="M124.325 10.5265C125.542 10.5265 126.812 10.8382 128.133 11.4617L127.554 12.6418C126.411 12.048 125.342 11.7511 124.347 11.7511C123.442 11.7511 122.744 11.9515 122.254 12.3523C121.765 12.7382 121.52 13.2652 121.52 13.9332C121.52 14.5121 121.69 15.002 122.032 15.4028C122.373 15.8035 122.885 16.2489 123.568 16.7387L125.951 18.4309C126.886 19.0989 127.583 19.7595 128.044 20.4126C128.504 21.0657 128.734 21.8451 128.734 22.7505C128.734 24.0568 128.303 25.0588 127.442 25.7565C126.581 26.4393 125.438 26.7807 124.013 26.7807C122.217 26.7807 120.614 26.3131 119.204 25.3779L119.827 24.2424C121.193 25.1182 122.588 25.5561 124.013 25.5561C125.142 25.5561 125.995 25.2963 126.574 24.7768C127.153 24.2572 127.442 23.6041 127.442 22.8173C127.442 22.2236 127.264 21.6818 126.908 21.1919C126.552 20.6872 125.958 20.138 125.127 19.5442L122.655 17.7407C121.868 17.1766 121.267 16.6125 120.852 16.0485C120.436 15.4844 120.228 14.7867 120.228 13.9555C120.228 12.9015 120.584 12.0703 121.297 11.4617C122.009 10.8382 123.019 10.5265 124.325 10.5265Z"/>
<path d="M153.27 12.8199C154.814 11.291 156.751 10.5265 159.082 10.5265C161.412 10.5265 163.349 11.291 164.893 12.8199C166.437 14.334 167.209 16.2785 167.209 18.6536C167.209 21.0286 166.437 22.9806 164.893 24.5096C163.349 26.0237 161.412 26.7807 159.082 26.7807C156.751 26.7807 154.814 26.0237 153.27 24.5096C151.727 22.9806 150.955 21.0286 150.955 18.6536C150.955 16.2785 151.727 14.334 153.27 12.8199ZM163.98 13.6883C162.704 12.3968 161.071 11.7511 159.082 11.7511C157.093 11.7511 155.46 12.3968 154.183 13.6883C152.907 14.9797 152.268 16.6348 152.268 18.6536C152.268 20.6724 152.907 22.3275 154.183 23.6189C155.46 24.9104 157.093 25.5561 159.082 25.5561C161.071 25.5561 162.704 24.9104 163.98 23.6189C165.257 22.3275 165.895 20.6724 165.895 18.6536C165.895 16.6348 165.257 14.9797 163.98 13.6883Z"/>
</mask>
<path d="M19.7161 26.7807C17.2075 26.7807 15.1961 26.0311 13.682 24.5318C12.1679 23.0326 11.4109 21.0732 11.4109 18.6536C11.4109 16.234 12.1679 14.2746 13.682 12.7754C15.1961 11.2761 17.2075 10.5265 19.7161 10.5265C21.7052 10.5265 23.5013 11.1203 25.1045 12.3078L24.3475 13.3543C22.8927 12.2855 21.3415 11.7511 19.6939 11.7511C17.6157 11.7511 15.9309 12.3968 14.6395 13.6883C13.3629 14.9649 12.7246 16.62 12.7246 18.6536C12.7246 20.6872 13.3629 22.3498 14.6395 23.6412C15.9309 24.9178 17.6157 25.5561 19.6939 25.5561C21.3415 25.5561 22.8927 25.0217 24.3475 23.9529L25.1045 24.9994C23.5013 26.1869 21.7052 26.7807 19.7161 26.7807Z" fill="white"/>
<path d="M58.9722 10.8605H60.1968V26.4467H58.9722V18.6981H49.5537V26.4467H48.329V10.8605H49.5537V17.518H58.9722V10.8605Z" fill="white"/>
<path d="M95.1863 10.8605V26.4467H93.8504L84.5877 12.9312H84.5432V26.4467H83.3185V10.8605H84.6545L93.9172 24.376H93.9617V10.8605H95.1863Z" fill="white"/>
<path d="M124.325 10.5265C125.542 10.5265 126.812 10.8382 128.133 11.4617L127.554 12.6418C126.411 12.048 125.342 11.7511 124.347 11.7511C123.442 11.7511 122.744 11.9515 122.254 12.3523C121.765 12.7382 121.52 13.2652 121.52 13.9332C121.52 14.5121 121.69 15.002 122.032 15.4028C122.373 15.8035 122.885 16.2489 123.568 16.7387L125.951 18.4309C126.886 19.0989 127.583 19.7595 128.044 20.4126C128.504 21.0657 128.734 21.8451 128.734 22.7505C128.734 24.0568 128.303 25.0588 127.442 25.7565C126.581 26.4393 125.438 26.7807 124.013 26.7807C122.217 26.7807 120.614 26.3131 119.204 25.3779L119.827 24.2424C121.193 25.1182 122.588 25.5561 124.013 25.5561C125.142 25.5561 125.995 25.2963 126.574 24.7768C127.153 24.2572 127.442 23.6041 127.442 22.8173C127.442 22.2236 127.264 21.6818 126.908 21.1919C126.552 20.6872 125.958 20.138 125.127 19.5442L122.655 17.7407C121.868 17.1766 121.267 16.6125 120.852 16.0485C120.436 15.4844 120.228 14.7867 120.228 13.9555C120.228 12.9015 120.584 12.0703 121.297 11.4617C122.009 10.8382 123.019 10.5265 124.325 10.5265Z" fill="white"/>
<path d="M153.27 12.8199C154.814 11.291 156.751 10.5265 159.082 10.5265C161.412 10.5265 163.349 11.291 164.893 12.8199C166.437 14.334 167.209 16.2785 167.209 18.6536C167.209 21.0286 166.437 22.9806 164.893 24.5096C163.349 26.0237 161.412 26.7807 159.082 26.7807C156.751 26.7807 154.814 26.0237 153.27 24.5096C151.727 22.9806 150.955 21.0286 150.955 18.6536C150.955 16.2785 151.727 14.334 153.27 12.8199ZM163.98 13.6883C162.704 12.3968 161.071 11.7511 159.082 11.7511C157.093 11.7511 155.46 12.3968 154.183 13.6883C152.907 14.9797 152.268 16.6348 152.268 18.6536C152.268 20.6724 152.907 22.3275 154.183 23.6189C155.46 24.9104 157.093 25.5561 159.082 25.5561C161.071 25.5561 162.704 24.9104 163.98 23.6189C165.257 22.3275 165.895 20.6724 165.895 18.6536C165.895 16.6348 165.257 14.9797 163.98 13.6883Z" fill="white"/>
<path d="M19.7161 26.7807C17.2075 26.7807 15.1961 26.0311 13.682 24.5318C12.1679 23.0326 11.4109 21.0732 11.4109 18.6536C11.4109 16.234 12.1679 14.2746 13.682 12.7754C15.1961 11.2761 17.2075 10.5265 19.7161 10.5265C21.7052 10.5265 23.5013 11.1203 25.1045 12.3078L24.3475 13.3543C22.8927 12.2855 21.3415 11.7511 19.6939 11.7511C17.6157 11.7511 15.9309 12.3968 14.6395 13.6883C13.3629 14.9649 12.7246 16.62 12.7246 18.6536C12.7246 20.6872 13.3629 22.3498 14.6395 23.6412C15.9309 24.9178 17.6157 25.5561 19.6939 25.5561C21.3415 25.5561 22.8927 25.0217 24.3475 23.9529L25.1045 24.9994C23.5013 26.1869 21.7052 26.7807 19.7161 26.7807Z" stroke="white" mask="url(#path-4-outside-1)"/>
<path d="M58.9722 10.8605H60.1968V26.4467H58.9722V18.6981H49.5537V26.4467H48.329V10.8605H49.5537V17.518H58.9722V10.8605Z" stroke="white" mask="url(#path-4-outside-1)"/>
<path d="M95.1863 10.8605V26.4467H93.8504L84.5877 12.9312H84.5432V26.4467H83.3185V10.8605H84.6545L93.9172 24.376H93.9617V10.8605H95.1863Z" stroke="white" mask="url(#path-4-outside-1)"/>
<path d="M124.325 10.5265C125.542 10.5265 126.812 10.8382 128.133 11.4617L127.554 12.6418C126.411 12.048 125.342 11.7511 124.347 11.7511C123.442 11.7511 122.744 11.9515 122.254 12.3523C121.765 12.7382 121.52 13.2652 121.52 13.9332C121.52 14.5121 121.69 15.002 122.032 15.4028C122.373 15.8035 122.885 16.2489 123.568 16.7387L125.951 18.4309C126.886 19.0989 127.583 19.7595 128.044 20.4126C128.504 21.0657 128.734 21.8451 128.734 22.7505C128.734 24.0568 128.303 25.0588 127.442 25.7565C126.581 26.4393 125.438 26.7807 124.013 26.7807C122.217 26.7807 120.614 26.3131 119.204 25.3779L119.827 24.2424C121.193 25.1182 122.588 25.5561 124.013 25.5561C125.142 25.5561 125.995 25.2963 126.574 24.7768C127.153 24.2572 127.442 23.6041 127.442 22.8173C127.442 22.2236 127.264 21.6818 126.908 21.1919C126.552 20.6872 125.958 20.138 125.127 19.5442L122.655 17.7407C121.868 17.1766 121.267 16.6125 120.852 16.0485C120.436 15.4844 120.228 14.7867 120.228 13.9555C120.228 12.9015 120.584 12.0703 121.297 11.4617C122.009 10.8382 123.019 10.5265 124.325 10.5265Z" stroke="white" mask="url(#path-4-outside-1)"/>
<path d="M153.27 12.8199C154.814 11.291 156.751 10.5265 159.082 10.5265C161.412 10.5265 163.349 11.291 164.893 12.8199C166.437 14.334 167.209 16.2785 167.209 18.6536C167.209 21.0286 166.437 22.9806 164.893 24.5096C163.349 26.0237 161.412 26.7807 159.082 26.7807C156.751 26.7807 154.814 26.0237 153.27 24.5096C151.727 22.9806 150.955 21.0286 150.955 18.6536C150.955 16.2785 151.727 14.334 153.27 12.8199ZM163.98 13.6883C162.704 12.3968 161.071 11.7511 159.082 11.7511C157.093 11.7511 155.46 12.3968 154.183 13.6883C152.907 14.9797 152.268 16.6348 152.268 18.6536C152.268 20.6724 152.907 22.3275 154.183 23.6189C155.46 24.9104 157.093 25.5561 159.082 25.5561C161.071 25.5561 162.704 24.9104 163.98 23.6189C165.257 22.3275 165.895 20.6724 165.895 18.6536C165.895 16.6348 165.257 14.9797 163.98 13.6883Z" stroke="white" mask="url(#path-4-outside-1)"/>
<path d="M35.9895 1H1V35.9895H35.9895M35.9895 1V35.9895M35.9895 1H70.979M35.9895 35.9895H70.979M70.979 1V35.9895M70.979 1H105.968M70.979 35.9895H105.968M105.968 1V35.9895M105.968 1H140.958M105.968 35.9895H140.958M140.958 1V35.9895M140.958 1H175.947V35.9895H140.958" stroke="white" stroke-width="2"/>
</g>
<defs>
<clipPath id="clip0">
<rect x="-261" y="-3282" width="1920" height="3391" fill="white"/>
</clipPath>
</defs>
    </symbol>
</svg>
