<svg width="10" height="13" viewBox="0 0 10 13" fill="none" xmlns="http://www.w3.org/2000/svg">
<path d="M4.77344 8.125L4.82422 9.30143C4.82422 9.99544 4.64931 10.5484 4.29948 10.9603H9.82617V13H0.863281V10.9603H1.64193C2.04818 10.8587 2.2513 10.3537 2.2513 9.44531L2.20898 8.125H0.837891V6.1276H2.14128L2.08203 4.20638C2.08203 3.06662 2.42904 2.16667 3.12305 1.50651C3.8227 0.846355 4.75651 0.516277 5.92448 0.516277C7.12066 0.516277 8.06011 0.83507 8.74284 1.47266C9.42556 2.1046 9.76693 2.96224 9.76693 4.04557H7.33789C7.33789 3.56597 7.21376 3.19922 6.96549 2.94531C6.72287 2.69141 6.37305 2.56445 5.91602 2.56445C5.54362 2.56445 5.23329 2.70269 4.98503 2.97917C4.7424 3.25564 4.62109 3.66471 4.62109 4.20638L4.69727 6.1276H7.3125V8.125H4.77344Z" fill="#0F0F0F"/>
</svg>
