<svg width="553" height="117" viewBox="0 0 553 117" fill="none" xmlns="http://www.w3.org/2000/svg">
<rect width="553" height="117" fill="#FAFAFA"/>
<mask id="path-1-outside-1" maskUnits="userSpaceOnUse" x="34.4316" y="31.6778" width="489" height="55" fill="black">
<rect fill="white" x="34.4316" y="31.6778" width="489" height="55"/>
<path d="M62.3043 84.3133C54.4893 84.3133 48.2235 81.978 43.5067 77.3075C38.79 72.637 36.4316 66.533 36.4316 58.9955C36.4316 51.458 38.79 45.354 43.5067 40.6835C48.2235 36.013 54.4893 33.6778 62.3043 33.6778C68.5008 33.6778 74.0961 35.5275 79.0903 39.2269L76.7319 42.487C72.2001 39.1575 67.3678 37.4928 62.2349 37.4928C55.761 37.4928 50.5125 39.5043 46.4894 43.5274C42.5125 47.5043 40.5241 52.6603 40.5241 58.9955C40.5241 65.3307 42.5125 70.5099 46.4894 74.533C50.5125 78.5098 55.761 80.4983 62.2349 80.4983C67.3678 80.4983 72.2001 78.8335 76.7319 75.5041L79.0903 78.7642C74.0961 82.4636 68.5008 84.3133 62.3043 84.3133Z"/>
<path d="M184.596 34.7182H188.411V83.2728H184.596V59.1343H155.255V83.2728H151.44V34.7182H155.255V55.458H184.596V34.7182Z"/>
<path d="M297.411 34.7182V83.2728H293.249L264.394 41.1691H264.255V83.2728H260.44V34.7182H264.602L293.457 76.822H293.596V34.7182H297.411Z"/>
<path d="M388.184 33.6778C391.976 33.6778 395.93 34.6489 400.046 36.5911L398.242 40.2673C394.682 38.4176 391.352 37.4928 388.254 37.4928C385.433 37.4928 383.26 38.1171 381.734 39.3656C380.208 40.5679 379.445 42.2095 379.445 44.2904C379.445 46.0939 379.976 47.6199 381.04 48.8684C382.104 50.117 383.699 51.5043 385.826 53.0303L393.248 58.3019C396.161 60.3828 398.335 62.4406 399.768 64.4753C401.202 66.5099 401.918 68.9376 401.918 71.7584C401.918 75.8278 400.577 78.9491 397.895 81.1225C395.213 83.2497 391.653 84.3133 387.213 84.3133C381.618 84.3133 376.624 82.8566 372.231 79.9433L374.173 76.4058C378.427 79.1341 382.774 80.4983 387.213 80.4983C390.728 80.4983 393.387 79.689 395.19 78.0705C396.994 76.452 397.895 74.4174 397.895 71.9665C397.895 70.1168 397.34 68.429 396.231 66.903C395.121 65.3307 393.271 63.6198 390.682 61.7701L382.982 56.1516C380.531 54.3944 378.659 52.6372 377.364 50.88C376.069 49.1228 375.422 46.9494 375.422 44.3598C375.422 41.0766 376.531 38.487 378.751 36.5911C380.971 34.6489 384.115 33.6778 388.184 33.6778Z"/>
<path d="M478.355 40.8222C483.164 36.0593 489.199 33.6778 496.459 33.6778C503.719 33.6778 509.754 36.0593 514.563 40.8222C519.372 45.539 521.777 51.5967 521.777 58.9955C521.777 66.3943 519.372 72.4752 514.563 77.2382C509.754 81.9549 503.719 84.3133 496.459 84.3133C489.199 84.3133 483.164 81.9549 478.355 77.2382C473.546 72.4752 471.141 66.3943 471.141 58.9955C471.141 51.5967 473.546 45.539 478.355 40.8222ZM511.719 43.5274C507.742 39.5043 502.655 37.4928 496.459 37.4928C490.263 37.4928 485.176 39.5043 481.199 43.5274C477.222 47.5505 475.234 52.7066 475.234 58.9955C475.234 65.2845 477.222 70.4405 481.199 74.4636C485.176 78.4867 490.263 80.4983 496.459 80.4983C502.655 80.4983 507.742 78.4867 511.719 74.4636C515.696 70.4405 517.684 65.2845 517.684 58.9955C517.684 52.7066 515.696 47.5505 511.719 43.5274Z"/>
</mask>
<path d="M62.3043 84.3133C54.4893 84.3133 48.2235 81.978 43.5067 77.3075C38.79 72.637 36.4316 66.533 36.4316 58.9955C36.4316 51.458 38.79 45.354 43.5067 40.6835C48.2235 36.013 54.4893 33.6778 62.3043 33.6778C68.5008 33.6778 74.0961 35.5275 79.0903 39.2269L76.7319 42.487C72.2001 39.1575 67.3678 37.4928 62.2349 37.4928C55.761 37.4928 50.5125 39.5043 46.4894 43.5274C42.5125 47.5043 40.5241 52.6603 40.5241 58.9955C40.5241 65.3307 42.5125 70.5099 46.4894 74.533C50.5125 78.5098 55.761 80.4983 62.2349 80.4983C67.3678 80.4983 72.2001 78.8335 76.7319 75.5041L79.0903 78.7642C74.0961 82.4636 68.5008 84.3133 62.3043 84.3133Z" fill="#0A4A83"/>
<path d="M184.596 34.7182H188.411V83.2728H184.596V59.1343H155.255V83.2728H151.44V34.7182H155.255V55.458H184.596V34.7182Z" fill="#0A4A83"/>
<path d="M297.411 34.7182V83.2728H293.249L264.394 41.1691H264.255V83.2728H260.44V34.7182H264.602L293.457 76.822H293.596V34.7182H297.411Z" fill="#0A4A83"/>
<path d="M388.184 33.6778C391.976 33.6778 395.93 34.6489 400.046 36.5911L398.242 40.2673C394.682 38.4176 391.352 37.4928 388.254 37.4928C385.433 37.4928 383.26 38.1171 381.734 39.3656C380.208 40.5679 379.445 42.2095 379.445 44.2904C379.445 46.0939 379.976 47.6199 381.04 48.8684C382.104 50.117 383.699 51.5043 385.826 53.0303L393.248 58.3019C396.161 60.3828 398.335 62.4406 399.768 64.4753C401.202 66.5099 401.918 68.9376 401.918 71.7584C401.918 75.8278 400.577 78.9491 397.895 81.1225C395.213 83.2497 391.653 84.3133 387.213 84.3133C381.618 84.3133 376.624 82.8566 372.231 79.9433L374.173 76.4058C378.427 79.1341 382.774 80.4983 387.213 80.4983C390.728 80.4983 393.387 79.689 395.19 78.0705C396.994 76.452 397.895 74.4174 397.895 71.9665C397.895 70.1168 397.34 68.429 396.231 66.903C395.121 65.3307 393.271 63.6198 390.682 61.7701L382.982 56.1516C380.531 54.3944 378.659 52.6372 377.364 50.88C376.069 49.1228 375.422 46.9494 375.422 44.3598C375.422 41.0766 376.531 38.487 378.751 36.5911C380.971 34.6489 384.115 33.6778 388.184 33.6778Z" fill="#0A4A83"/>
<path d="M478.355 40.8222C483.164 36.0593 489.199 33.6778 496.459 33.6778C503.719 33.6778 509.754 36.0593 514.563 40.8222C519.372 45.539 521.777 51.5967 521.777 58.9955C521.777 66.3943 519.372 72.4752 514.563 77.2382C509.754 81.9549 503.719 84.3133 496.459 84.3133C489.199 84.3133 483.164 81.9549 478.355 77.2382C473.546 72.4752 471.141 66.3943 471.141 58.9955C471.141 51.5967 473.546 45.539 478.355 40.8222ZM511.719 43.5274C507.742 39.5043 502.655 37.4928 496.459 37.4928C490.263 37.4928 485.176 39.5043 481.199 43.5274C477.222 47.5505 475.234 52.7066 475.234 58.9955C475.234 65.2845 477.222 70.4405 481.199 74.4636C485.176 78.4867 490.263 80.4983 496.459 80.4983C502.655 80.4983 507.742 78.4867 511.719 74.4636C515.696 70.4405 517.684 65.2845 517.684 58.9955C517.684 52.7066 515.696 47.5505 511.719 43.5274Z" fill="#0A4A83"/>
<path d="M62.3043 84.3133C54.4893 84.3133 48.2235 81.978 43.5067 77.3075C38.79 72.637 36.4316 66.533 36.4316 58.9955C36.4316 51.458 38.79 45.354 43.5067 40.6835C48.2235 36.013 54.4893 33.6778 62.3043 33.6778C68.5008 33.6778 74.0961 35.5275 79.0903 39.2269L76.7319 42.487C72.2001 39.1575 67.3678 37.4928 62.2349 37.4928C55.761 37.4928 50.5125 39.5043 46.4894 43.5274C42.5125 47.5043 40.5241 52.6603 40.5241 58.9955C40.5241 65.3307 42.5125 70.5099 46.4894 74.533C50.5125 78.5098 55.761 80.4983 62.2349 80.4983C67.3678 80.4983 72.2001 78.8335 76.7319 75.5041L79.0903 78.7642C74.0961 82.4636 68.5008 84.3133 62.3043 84.3133Z" stroke="#0A4A83" stroke-width="3.11522" mask="url(#path-1-outside-1)"/>
<path d="M184.596 34.7182H188.411V83.2728H184.596V59.1343H155.255V83.2728H151.44V34.7182H155.255V55.458H184.596V34.7182Z" stroke="#0A4A83" stroke-width="3.11522" mask="url(#path-1-outside-1)"/>
<path d="M297.411 34.7182V83.2728H293.249L264.394 41.1691H264.255V83.2728H260.44V34.7182H264.602L293.457 76.822H293.596V34.7182H297.411Z" stroke="#0A4A83" stroke-width="3.11522" mask="url(#path-1-outside-1)"/>
<path d="M388.184 33.6778C391.976 33.6778 395.93 34.6489 400.046 36.5911L398.242 40.2673C394.682 38.4176 391.352 37.4928 388.254 37.4928C385.433 37.4928 383.26 38.1171 381.734 39.3656C380.208 40.5679 379.445 42.2095 379.445 44.2904C379.445 46.0939 379.976 47.6199 381.04 48.8684C382.104 50.117 383.699 51.5043 385.826 53.0303L393.248 58.3019C396.161 60.3828 398.335 62.4406 399.768 64.4753C401.202 66.5099 401.918 68.9376 401.918 71.7584C401.918 75.8278 400.577 78.9491 397.895 81.1225C395.213 83.2497 391.653 84.3133 387.213 84.3133C381.618 84.3133 376.624 82.8566 372.231 79.9433L374.173 76.4058C378.427 79.1341 382.774 80.4983 387.213 80.4983C390.728 80.4983 393.387 79.689 395.19 78.0705C396.994 76.452 397.895 74.4174 397.895 71.9665C397.895 70.1168 397.34 68.429 396.231 66.903C395.121 65.3307 393.271 63.6198 390.682 61.7701L382.982 56.1516C380.531 54.3944 378.659 52.6372 377.364 50.88C376.069 49.1228 375.422 46.9494 375.422 44.3598C375.422 41.0766 376.531 38.487 378.751 36.5911C380.971 34.6489 384.115 33.6778 388.184 33.6778Z" stroke="#0A4A83" stroke-width="3.11522" mask="url(#path-1-outside-1)"/>
<path d="M478.355 40.8222C483.164 36.0593 489.199 33.6778 496.459 33.6778C503.719 33.6778 509.754 36.0593 514.563 40.8222C519.372 45.539 521.777 51.5967 521.777 58.9955C521.777 66.3943 519.372 72.4752 514.563 77.2382C509.754 81.9549 503.719 84.3133 496.459 84.3133C489.199 84.3133 483.164 81.9549 478.355 77.2382C473.546 72.4752 471.141 66.3943 471.141 58.9955C471.141 51.5967 473.546 45.539 478.355 40.8222ZM511.719 43.5274C507.742 39.5043 502.655 37.4928 496.459 37.4928C490.263 37.4928 485.176 39.5043 481.199 43.5274C477.222 47.5505 475.234 52.7066 475.234 58.9955C475.234 65.2845 477.222 70.4405 481.199 74.4636C485.176 78.4867 490.263 80.4983 496.459 80.4983C502.655 80.4983 507.742 78.4867 511.719 74.4636C515.696 70.4405 517.684 65.2845 517.684 58.9955C517.684 52.7066 515.696 47.5505 511.719 43.5274Z" stroke="#0A4A83" stroke-width="3.11522" mask="url(#path-1-outside-1)"/>
<path d="M113 4H4V113H113M113 4V113M113 4H222M113 113H222M222 4V113M222 4H331M222 113H331M331 4V113M331 4H440M331 113H440M440 4V113M440 4H549V113H440" stroke="#0A4A83" stroke-width="6.23044"/>
</svg>
