<svg width="22" height="21" viewBox="0 0 22 21" fill="none" xmlns="http://www.w3.org/2000/svg">
<path fill-rule="evenodd" clip-rule="evenodd" d="M6.41666 19.1739C6.41666 18.1654 7.23747 17.3478 8.25 17.3478C9.26252 17.3478 10.0833 18.1654 10.0833 19.1739C10.0833 20.1824 9.26252 21 8.25 21C7.23747 21 6.41666 20.1824 6.41666 19.1739Z" fill="#2A2A2A"/>
<path fill-rule="evenodd" clip-rule="evenodd" d="M16.5 19.1739C16.5 18.1654 17.3208 17.3478 18.3333 17.3478C19.3458 17.3478 20.1667 18.1654 20.1667 19.1739C20.1667 20.1824 19.3458 21 18.3333 21C17.3208 21 16.5 20.1824 16.5 19.1739Z" fill="#2A2A2A"/>
<path fill-rule="evenodd" clip-rule="evenodd" d="M0 0.913043C0 0.408783 0.410405 0 0.916666 0H4.58333C5.02024 0 5.39643 0.307161 5.48218 0.733879L6.25206 4.56522H21.0833C21.3565 4.56522 21.6155 4.68658 21.7896 4.89624C21.9638 5.1059 22.0349 5.382 21.9838 5.64929L20.5158 13.3166C20.39 13.9471 20.0456 14.5135 19.5429 14.9166C19.0426 15.3178 18.4173 15.5318 17.7754 15.5217H8.88127C8.23935 15.5318 7.61401 15.3178 7.11376 14.9166C6.61121 14.5137 6.26692 13.9476 6.14106 13.3174L4.60974 5.69666C4.60353 5.67145 4.59836 5.64585 4.5943 5.61987L3.83197 1.82609H0.916666C0.410405 1.82609 0 1.4173 0 0.913043ZM6.619 6.3913L7.93912 12.9608C7.98103 13.171 8.09581 13.3598 8.2634 13.4942C8.43098 13.6286 8.64069 13.6999 8.85578 13.6958L8.87332 13.6957H17.7833L17.8009 13.6958C18.016 13.6999 18.2257 13.6286 18.3933 13.4942C18.5601 13.3605 18.6746 13.1728 18.717 12.9638L19.9753 6.3913H6.619Z" fill="#2A2A2A"/>
</svg>
