<svg width="177" height="38" viewBox="0 0 177 38" fill="none" xmlns="http://www.w3.org/2000/svg">
<rect width="177" height="38" fill="#FAFAFA"/>
<path d="M-262 -11H1658V142H-262V-11Z" fill="white"/>
<path d="M153.095 13.5515C154.689 11.9729 156.691 11.1862 159.082 11.1862C161.473 11.1862 163.475 11.9729 165.069 13.5516C166.665 15.1175 167.459 17.1286 167.459 19.5633C167.459 21.9982 166.665 24.0164 165.069 25.5969L165.068 25.5977C163.474 27.1614 161.472 27.9404 159.082 27.9404C156.691 27.9404 154.69 27.1614 153.095 25.5977L153.094 25.5969C151.499 24.0164 150.705 21.9982 150.705 19.5633C150.705 17.1286 151.498 15.1174 153.095 13.5515ZM153.095 13.5515C153.095 13.5514 153.095 13.5512 153.095 13.5511L153.27 13.7296M153.095 13.5515L153.27 13.7296M153.095 13.5515C153.095 13.5516 153.095 13.5518 153.094 13.5519L153.27 13.7296M153.095 13.5515L153.27 13.7296M25.3071 13.364L25.4519 13.1637L25.2533 13.0166C23.6072 11.7972 21.759 11.1862 19.7161 11.1862C17.1542 11.1862 15.0752 11.9536 13.5061 13.5074C11.938 15.0601 11.1609 17.0868 11.1609 19.5633C11.1609 22.0397 11.938 24.0664 13.5061 25.6191C15.0752 27.1729 17.1542 27.9404 19.7161 27.9404C21.759 27.9404 23.6072 27.3293 25.2533 26.11L25.4519 25.9628L25.3071 25.7626L24.55 24.7161L24.4024 24.512L24.1994 24.6611C22.7833 25.7015 21.2832 26.2157 19.6939 26.2157C17.6718 26.2157 16.0539 25.597 14.8162 24.3741C13.5923 23.1354 12.9746 21.5392 12.9746 19.5633C12.9746 17.5868 13.5926 15.9983 14.8162 14.7747C16.0542 13.5368 17.672 12.9108 19.6939 12.9108C21.2832 12.9108 22.7833 13.425 24.1994 14.4654L24.4024 14.6145L24.55 14.4105L25.3071 13.364ZM58.9722 11.5201H58.7222V11.7701V18.1777H49.8037V11.7701V11.5201H49.5537H48.329H48.079V11.7701V27.3564V27.6064H48.329H49.5537H49.8037V27.3564V19.8578H58.7222V27.3564V27.6064H58.9722H60.1968H60.4468V27.3564V11.7701V11.5201H60.1968H58.9722ZM95.4363 11.7701V11.5201H95.1863H93.9617H93.7117V11.7701V24.5436L84.8607 11.6288L84.7862 11.5201H84.6545H83.3185H83.0685V11.7701V27.3564V27.6064H83.3185H84.5432H84.7932V27.3564V14.5829L93.6441 27.4977L93.7186 27.6064H93.8504H95.1863H95.4363V27.3564V11.7701ZM128.357 12.4814L128.469 12.2536L128.239 12.1452C126.891 11.5092 125.586 11.1862 124.325 11.1862C122.982 11.1862 121.906 11.5066 121.133 12.1822C120.359 12.8445 119.978 13.7488 119.978 14.8651C119.978 15.7395 120.198 16.4918 120.65 17.1064C121.086 17.6976 121.708 18.279 122.508 18.8527C122.509 18.853 122.509 18.8533 122.51 18.8535L124.979 20.6559L124.981 20.6573C125.803 21.244 126.371 21.7741 126.704 22.2458L126.706 22.2486C127.032 22.6967 127.192 23.1872 127.192 23.727C127.192 24.4437 126.932 25.0289 126.407 25.5004C125.891 25.9635 125.107 26.2157 124.013 26.2157C122.643 26.2157 121.293 25.7952 119.962 24.9416L119.737 24.7971L119.608 25.0317L118.985 26.1673L118.874 26.3689L119.066 26.496C120.52 27.46 122.171 27.9404 124.013 27.9404C125.478 27.9404 126.681 27.5891 127.598 26.862L127.6 26.8604C128.53 26.1065 128.984 25.0269 128.984 23.6602C128.984 22.7103 128.742 21.8791 128.248 21.1783C127.766 20.4945 127.045 19.815 126.096 19.1372L126.095 19.1368L123.714 17.4452C123.714 17.4452 123.714 17.4451 123.714 17.4451C123.039 16.961 122.545 16.5293 122.222 16.1503C121.923 15.7994 121.77 15.3687 121.77 14.8429C121.77 14.2452 121.984 13.7931 122.409 13.4584L122.413 13.4555C122.842 13.1041 123.475 12.9108 124.347 12.9108C125.292 12.9108 126.321 13.1927 127.438 13.7733L127.665 13.8912L127.778 13.6615L128.357 12.4814ZM159.082 12.9108C161.011 12.9108 162.578 13.5345 163.803 14.7737C165.027 16.0129 165.645 17.6022 165.645 19.5633C165.645 21.5243 165.027 23.1136 163.803 24.3528C162.578 25.592 161.011 26.2157 159.082 26.2157C157.152 26.2157 155.586 25.592 154.361 24.3528C153.136 23.1136 152.518 21.5243 152.518 19.5633C152.518 17.6022 153.136 16.0129 154.361 14.7737C155.586 13.5345 157.152 12.9108 159.082 12.9108Z" fill="#0A4A83" stroke="#0A4A83" stroke-width="0.5"/>
<path d="M35.9895 1.90967H1V36.8992H35.9895M35.9895 1.90967V36.8992M35.9895 1.90967H70.979M35.9895 36.8992H70.979M70.979 1.90967V36.8992M70.979 1.90967H105.968M70.979 36.8992H105.968M105.968 1.90967V36.8992M105.968 1.90967H140.958M105.968 36.8992H140.958M140.958 1.90967V36.8992M140.958 1.90967H175.947V36.8992H140.958" stroke="#0A4A83" stroke-width="2"/>
</svg>
