<svg width="12" height="13" viewBox="0 0 12 13" fill="none" xmlns="http://www.w3.org/2000/svg">
<path d="M7.38021 11.247H4.6888V12.8889H2.14974V11.247H0.431641V9.19035H2.14974V8.54712H0.431641V6.49048H2.14974V0.566H6.9401C7.86545 0.566 8.67795 0.73245 9.3776 1.06535C10.0773 1.39825 10.6189 1.87503 11.0026 2.49569C11.3919 3.1107 11.5866 3.81318 11.5866 4.60311C11.5866 5.82186 11.1719 6.78388 10.3424 7.48918C9.51866 8.19447 8.37044 8.54712 6.89779 8.54712H4.6888V9.19035H7.38021V11.247ZM4.6888 6.49048H6.88086C8.30273 6.49048 9.01367 5.867 9.01367 4.62004C9.01367 4.02759 8.83312 3.55081 8.472 3.1897C8.11089 2.82294 7.61154 2.63675 6.97396 2.6311H4.6888V6.49048Z" fill="#0F0F0F"/>
</svg>
