<svg  fill="none" xmlns="http://www.w3.org/2000/svg">
    <symbol id="input-file" width="17" height="17" viewBox="0 0 17 17">
    <path fill-rule="evenodd" clip-rule="evenodd" d="M11.7188 1.50372C11.0874 1.50372 10.4819 1.74154 10.0354 2.16486L2.74798 9.07445C2.00393 9.77993 1.58594 10.7368 1.58594 11.7345C1.58594 12.7322 2.00393 13.689 2.74798 14.3945C3.49204 15.0999 4.50119 15.4963 5.55344 15.4963C6.60569 15.4963 7.61485 15.0999 8.3589 14.3945L15.6463 7.48487C15.956 7.19125 16.4581 7.19125 16.7677 7.48487C17.0774 7.77849 17.0774 8.25452 16.7677 8.54814L9.48033 15.4577C8.43886 16.4452 7.02631 17 5.55344 17C4.08057 17 2.66802 16.4452 1.62655 15.4577C0.585077 14.4703 0 13.131 0 11.7345C0 10.338 0.585077 8.99866 1.62655 8.01118L8.91396 1.10159C9.65785 0.396268 10.6668 0 11.7188 0C12.7708 0 13.7797 0.396268 14.5236 1.10159C15.2675 1.80691 15.6854 2.76353 15.6854 3.761C15.6854 4.75847 15.2675 5.71509 14.5236 6.42041L7.22827 13.33C6.78197 13.7532 6.17667 13.9909 5.5455 13.9909C4.91434 13.9909 4.30903 13.7532 3.86274 13.33C3.41644 12.9068 3.16572 12.3329 3.16572 11.7345C3.16572 11.136 3.41644 10.5621 3.86274 10.1389L10.5954 3.76283C10.9053 3.46939 11.4073 3.46968 11.7168 3.76348C12.0263 4.05727 12.026 4.5333 11.7162 4.82674L4.98417 11.2022C4.8355 11.3434 4.75166 11.535 4.75166 11.7345C4.75166 11.9341 4.83529 12.1255 4.98417 12.2667C5.13305 12.4078 5.33496 12.4871 5.5455 12.4871C5.75605 12.4871 5.95798 12.4078 6.10686 12.2667L13.4022 5.35709C13.8485 4.9338 14.0995 4.35952 14.0995 3.761C14.0995 3.16234 13.8487 2.58817 13.4022 2.16486C12.9557 1.74154 12.3502 1.50372 11.7188 1.50372Z" fill="white"/>
    </symbol>
</svg>
