<svg  xmlns="http://www.w3.org/2000/svg">
    <symbol id="con-05" width="22" height="22" viewBox="0 0 22 22" fill="none">
<path d="M22 4.63134V0H0V4.63134H1.48152V20.7109H0V22H22V20.7109H20.5185V4.63134H22ZM1.28906 1.28906H20.7109V3.34228H1.28906V1.28906ZM4.28489 10.7349H2.77058V8.88705H4.28489V10.7349ZM6.27868 17.9555V16.3761H15.7214V17.9555H6.27868ZM14.3981 19.2445V20.7109H7.6019V19.2445H14.3981ZM15.6872 20.7109V19.2445H17.0104V15.087H4.98962V19.2445H6.31284V20.7109H2.77058V12.024H4.28489V13.3157H17.7152V12.024H19.2295V20.7109H15.6872ZM5.57395 12.0266V7.59537H16.4261V12.0266H5.57395ZM17.7151 8.88705H19.2294V10.7349H17.7151V8.88705ZM17.7151 7.59799V6.30631H4.28489V7.59799H2.77058V4.63134H19.2295V7.59799H17.7151Z" fill="#424242"/>
<path d="M11 9.16644H15.137V10.4555H11V9.16644Z" fill="#424242"/>
<path d="M6.86301 9.16644H9.35314V10.4555H6.86301V9.16644Z" fill="#424242"/>
    </symbol>
</svg>
<svg xmlns="http://www.w3.org/2000/svg">
<symbol id="con-06" width="22" height="14" viewBox="0 0 22 14" fill="none">
<path d="M0 0V12.4878H2.4878C2.92106 13.3824 3.82925 14 4.87738 14C5.92552 14 6.83371 13.3824 7.26696 12.4878H14.733C15.1662 13.3824 16.0744 14 17.1225 14C18.1707 14 19.0789 13.3824 19.5121 12.4878H22V0H0ZM4.87743 12.6939C4.12135 12.6939 3.50629 12.0707 3.50629 11.3046C3.50629 10.5386 4.12135 9.91538 4.87743 9.91538C5.6335 9.91538 6.24856 10.5386 6.24856 11.3046C6.24856 12.0707 5.63346 12.6939 4.87743 12.6939ZM8.20793 5.97147H3.86719V3.91831H8.20793V5.97147ZM12.5029 11.1816H9.49704V9.91538H12.5029V11.1816ZM12.5029 8.60927H9.49704V3.91831H12.5029V8.60927ZM17.1226 12.6939C16.3665 12.6939 15.7514 12.0707 15.7514 11.3046C15.7514 10.5386 16.3665 9.91538 17.1226 9.91538C17.8787 9.91538 18.4937 10.5386 18.4937 11.3046C18.4937 12.0707 17.8787 12.6939 17.1226 12.6939ZM20.7109 11.1816H19.7797C19.716 9.75233 18.5487 8.60927 17.1226 8.60927C15.6964 8.60927 14.5292 9.75233 14.4654 11.1816H13.7919V7.27757H20.7109V11.1816ZM13.7919 5.97147V3.91831H17.3956V5.97147H13.7919ZM20.7109 5.97147H18.6846V3.91831H20.7109V5.97147ZM20.7109 2.61221H2.57812V7.27757H8.20793V11.1816H7.53453C7.4708 9.75233 6.30356 8.60927 4.87738 8.60927C3.45121 8.60927 2.28396 9.75233 2.22024 11.1816H1.28906V1.3061H20.7109V2.61221Z" fill="#424242"/>
</symbol>
</svg>
<svg xmlns="http://www.w3.org/2000/svg">
<symbol id="con-07" width="22" height="22" viewBox="0 0 22 22" fill="none">
<path d="M22 9.9565V8.66744H19.1366L16.0716 13.7964H13.3259V19.7601H15.2498C15.5434 21.0412 16.6918 22 18.0607 22C19.4295 22 20.5779 21.0412 20.8716 19.7601H22V18.471H20.8716C20.5779 17.1899 19.4296 16.2311 18.0607 16.2311C16.6919 16.2311 15.5435 17.1899 15.2498 18.471H14.615V15.0855H22V13.7964H17.5733L19.8679 9.9565H22ZM18.0607 17.5202C18.9404 17.5202 19.6561 18.2359 19.6561 19.1156C19.6561 19.9953 18.9404 20.7109 18.0607 20.7109C17.181 20.7109 16.4654 19.9953 16.4654 19.1156C16.4654 18.2359 17.1811 17.5202 18.0607 17.5202Z" fill="#424242"/>
<path d="M2.86344 8.66744H0V9.9565H2.13202L4.42664 13.7964H0V15.0855H7.385V18.471H6.75018C6.45648 17.1899 5.30814 16.2311 3.93929 16.2311C2.57043 16.2311 1.42205 17.1899 1.12836 18.471H0V19.7601H1.12836C1.42201 21.0412 2.57039 22 3.93929 22C5.30819 22 6.45653 21.0412 6.75018 19.7601H8.67406V13.7964H5.92831L2.86344 8.66744ZM3.93929 20.7109C3.05959 20.7109 2.3439 19.9953 2.3439 19.1156C2.3439 18.2359 3.05959 17.5202 3.93929 17.5202C4.81899 17.5202 5.53463 18.2359 5.53463 19.1156C5.53463 19.9953 4.81895 20.7109 3.93929 20.7109Z" fill="#424242"/>
<path d="M11.2994 2.67932H9.3491V7.80076H10.6382V6.57993H11.2994C12.3748 6.57993 13.2497 5.70505 13.2497 4.62958C13.2497 3.55425 12.3748 2.67932 11.2994 2.67932ZM11.2994 5.29091H10.6382V3.96838H11.2994C11.664 3.96838 11.9607 4.26499 11.9607 4.62963C11.9606 4.99426 11.664 5.29091 11.2994 5.29091Z" fill="#424242"/>
<path d="M11.6445 10.6077H16.3039V0H5.69611V10.6077H10.3555V20.7109H8.90605V22H13.094V20.7109H11.6445V10.6077ZM6.98517 1.28906H15.0148V9.31868H6.98517V1.28906Z" fill="#424242"/>
</symbol>
</svg>
<svg xmlns="http://www.w3.org/2000/svg">
<symbol id="con-08" width="18" height="19" viewBox="0 0 18 19" fill="none">
<path d="M0 0V19H18V0H0ZM16.5414 1.51088V14.046H1.45862V1.51088H16.5414ZM1.45862 17.4891V15.5569H16.5414V17.4891H1.45862Z" fill="#424242"/>
<path d="M7.54992 5.99271L9.00002 7.49473L10.4501 5.99271V8.96572H11.9087V3.64631H10.6525L9.00002 5.35809L7.34751 3.64631H6.0913V8.96572H7.54992V5.99271Z" fill="#424242"/>
<path d="M5.76496 10.1017H12.2351V11.6126H5.76496V10.1017Z" fill="#424242"/>
</symbol>
</svg>





